<svg xmlns="http://www.w3.org/2000/svg" xmlns:xlink="http://www.w3.org/1999/xlink" width="294.232" height="315.935" viewBox="0 0 294.232 315.935">
  <defs>
    <clipPath id="clip-path">
      <rect id="Rect치ngulo_401109" data-name="Rect치ngulo 401109" width="294.232" height="315.249" rx="64" transform="translate(0 0)" fill="#fff" stroke="#707070" stroke-width="1"/>
    </clipPath>
    <linearGradient id="linear-gradient" x1="-1.577" y1="-13.3" x2="-1.171" y2="-13.012" gradientUnits="objectBoundingBox">
      <stop offset="0" stop-color="#060c3f"/>
      <stop offset="1" stop-color="#3e376c"/>
    </linearGradient>
    <linearGradient id="linear-gradient-2" x1="-2.016" y1="-16.834" x2="-2.674" y2="-16.502" gradientUnits="objectBoundingBox">
      <stop offset="0" stop-color="#2c2557"/>
      <stop offset="1" stop-color="#4f4a82"/>
    </linearGradient>
  </defs>
  <g id="Grupo_1099307" data-name="Grupo 1099307" transform="translate(-1058.946 -5835.065)">
    <g id="Grupo_1099230" data-name="Grupo 1099230" transform="translate(-46.054 -120.935)">
      <path id="Rect치ngulo_401108" data-name="Rect치ngulo 401108" d="M35.762,0h139.31a35.762,35.762,0,0,1,35.762,35.762V238.8A75.137,75.137,0,0,1,135.7,313.934H75.137A75.137,75.137,0,0,1,0,238.8V35.762A35.762,35.762,0,0,1,35.762,0Z" transform="translate(1153.158 5956.036)" fill="#53bced"/>
      <path id="Trazado_875661" data-name="Trazado 875661" d="M1000.057,542.948H936.83c-41.236,0-74.786-27.546-74.786-61.4V256.7c0-16.348,16.2-29.648,36.109-29.648h140.581c19.91,0,36.108,13.3,36.108,29.648V481.543C1074.842,515.4,1041.294,542.948,1000.057,542.948Zm-101.9-314.286c-18.828,0-34.145,12.577-34.145,28.035V481.543c0,32.969,32.667,59.792,72.821,59.792h63.228c40.153,0,72.82-26.823,72.82-59.792V256.7c0-15.458-15.317-28.035-34.144-28.035Z" transform="translate(242.956 5728.987)" fill="#db6e5f"/>
      <g id="Enmascarar_grupo_1098689" data-name="Enmascarar grupo 1098689" transform="translate(1105 5956)" clip-path="url(#clip-path)">
        <g id="PAREJA" transform="translate(0 35.414)">
          <path id="Trazado_875564" data-name="Trazado 875564" d="M870.888,546.872c.972-1.063,1.238-2.849,1.6-4.2a5.593,5.593,0,0,0,.736.644l-.233.741c.318,1.106-.778,2.127-.436,2.872l.458.156a2.1,2.1,0,0,1-1.589.12c-.092-.017-.184-.038-.276-.054-.184-.033-.368-.066-.55-.1Z" transform="translate(-776.062 -532.843)" fill="#0b1558"/>
          <path id="Trazado_875565" data-name="Trazado 875565" d="M878.62,510.827a20.857,20.857,0,0,1,1.736-3.934,18.272,18.272,0,0,1,5.856-5.712,1.624,1.624,0,0,1,.677-.127l.078.248-.314-.3.283.564c-.4,1-3.217,2.611-4.139,3.7a22.242,22.242,0,0,0-3.443,6.2A5.537,5.537,0,0,1,878.62,510.827Z" transform="translate(-782.191 -501)" fill="#0b1558"/>
          <path id="Trazado_875566" data-name="Trazado 875566" d="M1166.836,1072.666c1.1-.434,4.342-4.172,5.938-5.266-1.134,3.549-2.745,6.962-4.014,10.468-4.327,11.954-7.44,22.963-8.254,35.7-8.987-.243-17.989.167-26.976-.066a37.483,37.483,0,0,1,5.851-.2l12.23.028a123.745,123.745,0,0,1,10.124-31.261c1.46-3.085,3.688-5.974,4.971-9.084C1166.754,1072.878,1166.794,1072.772,1166.836,1072.666Z" transform="translate(-976.986 -933.827)" fill="#a8aef4"/>
          <path id="Trazado_875567" data-name="Trazado 875567" d="M1027.689,970.17c3.781,8.674,6.568,17.876,9.273,26.934l9.443,32.8c-1.818-.717-3.481-2.361-5.216-3.339a62.113,62.113,0,0,0-9.365-3.908c-.589-3.476-.6-7.254-.87-10.782-.486-6.41-1.054-12.853-1.729-19.244-.3-2.821-.394-6.059-1.179-8.787l-.269.177c.021-2.816.042-5.643-.033-8.457A34.407,34.407,0,0,1,1027.689,970.17Z" transform="translate(-896.027 -859.526)" fill="#df7124"/>
          <path id="Trazado_875568" data-name="Trazado 875568" d="M1012.029,1028.337l.269-.177c.785,2.729.882,5.964,1.179,8.787.675,6.391,1.243,12.834,1.729,19.244.266,3.528.281,7.306.87,10.782a62.133,62.133,0,0,1,9.365,3.908c1.736.979,3.4,2.625,5.217,3.339.983,3.049,1.809,6.188,2.537,9.306l-6.113-.061c-6.66.257-13.428-.012-20.1-.031,1.172-6.964,1.641-14.1,2.406-21.123C1010.614,1051.014,1012.093,1039.727,1012.029,1028.337Z" transform="translate(-880.28 -903.841)" fill="#c35e17"/>
          <path id="Trazado_875569" data-name="Trazado 875569" d="M1045.55,1192.73a62.107,62.107,0,0,1,9.365,3.908c1.736.979,3.4,2.625,5.217,3.339.983,3.049,1.809,6.188,2.537,9.306l-6.113-.061c-.932-.583-7.962-.205-9.537-.2Q1046.45,1200.864,1045.55,1192.73Z" transform="translate(-909.754 -1029.601)" fill="#df7124"/>
          <path id="Trazado_875570" data-name="Trazado 875570" d="M813.057,753.3c.646.231,1.193.278,1.479.976.618,1.514.663,3.226,1.271,4.747,2.229,5.575,6.764,10.9,11.207,14.848,1.538,1.368,4.207,2.637,5.419,4.019-.6,2.953-.875,6.082-1.21,9.082a3.827,3.827,0,0,0,.472,2.3,9.293,9.293,0,0,0-.472,1.306,9.832,9.832,0,0,1-1.627,1.441l-2.377.981-1.493.375a35.362,35.362,0,0,1-10.832-.21c-.6-.113-1.191-.276-1.785-.427a35.645,35.645,0,0,1-4.492-1.531l-2-.988c-1.333-.766-2.622-1.559-3.9-2.417-.474-.467-.924-.957-1.384-1.439l-1.865-2.311a11.16,11.16,0,0,1-.641-1.625c.818-.608,6.2-17.081,7.112-19.619a34.012,34.012,0,0,0,1.856-6.771A10.883,10.883,0,0,0,813.057,753.3Z" transform="translate(-721.218 -693.8)" fill="#f59b9d"/>
          <path id="Trazado_875571" data-name="Trazado 875571" d="M836.12,753.3c.646.231,1.193.278,1.479.976.618,1.514.663,3.226,1.271,4.747,2.229,5.575,6.764,10.9,11.207,14.848,1.538,1.368,4.207,2.637,5.419,4.019-.6,2.953-.875,6.082-1.21,9.082-.342.566-.092,1.495-.007,2.113-9-2.83-15.482-12.489-20.668-19.88-1.453-2.07-2.83-4.259-4.445-6.207l-.156-.186a34.02,34.02,0,0,0,1.856-6.771A10.888,10.888,0,0,0,836.12,753.3Z" transform="translate(-744.28 -693.8)" fill="#ee5859"/>
          <path id="Trazado_875572" data-name="Trazado 875572" d="M1166.634,1546.61c.981,10.386.752,20.411-6.278,28.882-1.873,2.257-3.929,3.328-6.306,4.9-14.117.351-28.325-.007-42.451-.012-18.418,0-36.869.262-55.283-.012a15.432,15.432,0,0,1,.608-5.179c2.4-7.379,13.954-12.784,20.493-16.131a78.628,78.628,0,0,0,9.447.436q11.472.389,22.948.554c3.8.073,12.409.778,15.676.156,5.285-1.009,11.633-3.476,16.8-5.217C1150.4,1552.263,1158.618,1549.626,1166.634,1546.61Z" transform="translate(-917.977 -1300.026)" fill="#4caea7"/>
          <path id="Trazado_875573" data-name="Trazado 875573" d="M666.425,1545.95c.738,3.028,1.394,8.865,4.184,10.57.151.09.3.179.455.264,1.2-1.092,14.1-.639,16.458-.564-.1.075-.2.151-.3.224a5.9,5.9,0,0,1-1.295.665,1.98,1.98,0,0,0-.422.854l.127.014a148.842,148.842,0,0,1-1.721,21.788,35.031,35.031,0,0,0-6.3-.187q-9.367-.042-18.73.12a38.617,38.617,0,0,1-5.221-.026c-11.631-.531-23.437-.269-35.089-.154-4.724.047-9.542.437-14.251.128-4.79-.13-9.594.111-14.388.021a46.454,46.454,0,0,1-.665-4.67,22.275,22.275,0,0,0-.2-2.658c.059-2.46-.13-4.978-.205-7.44q-.347-8.494-.4-17a68.385,68.385,0,0,0,21.5,7.325c9.077,2.045,21.5,3.809,30.754,3.238,1.273-1.026,10.671-4.457,13.251-5.65A107.972,107.972,0,0,0,666.425,1545.95Z" transform="translate(-560.459 -1299.521)" fill="#344e93"/>
          <path id="Trazado_875574" data-name="Trazado 875574" d="M864.9,1651.9q6.505-5.911,13.341-11.435c-2.755,3.778-5.566,7.544-8.117,11.461A38.217,38.217,0,0,1,864.9,1651.9Z" transform="translate(-771.706 -1371.743)" fill="#0b1558"/>
          <path id="Trazado_875575" data-name="Trazado 875575" d="M666.417,1545.95c.738,3.028,1.394,8.865,4.184,10.57.151.09.3.179.455.264,1.2-1.092,14.1-.639,16.458-.564-.1.075-.2.151-.3.224a5.9,5.9,0,0,1-1.295.665,1.98,1.98,0,0,0-.422.854c-.038.333.009.849-.264,1.061-1.415,1.1-5.778,1.618-7.582,2.063-16.874,4.155-34.7,4.419-51.937,2.971-5.768-.486-11.492-1.36-17.253-1.872q.078,8.681.434,17.357c-1.507.021-3.092-.054-4.587.1-4.79-.13-9.594.111-14.388.021a46.432,46.432,0,0,1-.665-4.669,22.263,22.263,0,0,0-.2-2.658c.059-2.46-.13-4.978-.205-7.44q-.347-8.494-.4-17a68.385,68.385,0,0,0,21.5,7.325c9.077,2.044,21.5,3.809,30.754,3.238,1.273-1.026,10.671-4.457,13.251-5.651A107.417,107.417,0,0,0,666.417,1545.95Z" transform="translate(-560.451 -1299.521)" fill="#0b1558"/>
          <path id="Trazado_875576" data-name="Trazado 875576" d="M835.735,1545.95c.738,3.028,1.394,8.865,4.184,10.57.151.09.3.179.455.264l-.092.33c-4.9,1.238-25.01,1.8-30.261,1.351,1.274-1.026,10.671-4.457,13.251-5.651A107.422,107.422,0,0,0,835.735,1545.95Z" transform="translate(-729.768 -1299.521)" fill="#df7124"/>
          <path id="Trazado_875577" data-name="Trazado 875577" d="M628.709,1387.7c2.233.6,13.322,2.87,14.213,4.026l-.165,1.335.238.769,1.313,2.655c.443,1.064.873,2.127,1.394,3.158a44.725,44.725,0,0,0,12.374,13,11.58,11.58,0,0,0,3.167,1.729l2.764,10.65a107.256,107.256,0,0,1-12.466,6.865c-2.58,1.193-11.978,4.625-13.251,5.65-9.252.573-21.677-1.193-30.755-3.238a68.382,68.382,0,0,1-21.5-7.325c-.057-.047-.118-.092-.172-.144a1.685,1.685,0,0,1-.507-1.16,65.724,65.724,0,0,1,.281-7.962l.575-15.536c.028-.95.007-1.9.007-2.854.335-3.405.429-6.829.776-10.237l.274-.285c1.755.054,3.582.58,5.342.8q5.911.736,11.857,1.141,7.712.541,15.442.7c2.67.073,5.379.028,8.037.238l.215-.141a4.666,4.666,0,0,0,.038-2.13A2.636,2.636,0,0,1,628.709,1387.7Z" transform="translate(-558.039 -1178.591)" fill="#faa742"/>
          <path id="Trazado_875578" data-name="Trazado 875578" d="M628.709,1387.7c2.233.6,13.322,2.87,14.213,4.026l-.165,1.335.238.769,1.313,2.655c.443,1.064.873,2.127,1.394,3.158a101.891,101.891,0,0,0-44.911,2.174c.6,9.285,1.467,17.819,4.393,26.7a25.187,25.187,0,0,0,2.351,5.78,68.382,68.382,0,0,1-21.5-7.325c-.057-.047-.118-.092-.172-.144a1.684,1.684,0,0,1-.507-1.16,65.728,65.728,0,0,1,.281-7.962l.575-15.536c.028-.95.007-1.9.007-2.854.335-3.405.429-6.829.776-10.237l.274-.285c1.755.054,3.582.58,5.342.8q5.911.736,11.857,1.141,7.712.541,15.442.7c2.67.073,5.379.028,8.037.238l.215-.142a4.666,4.666,0,0,0,.038-2.129A2.638,2.638,0,0,1,628.709,1387.7Z" transform="translate(-558.039 -1178.591)" fill="#df7124"/>
          <path id="Trazado_875579" data-name="Trazado 875579" d="M766.432,1394.89c4.818,1.337,9.726,2.356,14.553,3.665l.238.769c-4.865-1.212-10.082-1.42-15.043-2.16l.215-.142A4.642,4.642,0,0,0,766.432,1394.89Z" transform="translate(-696.267 -1184.086)" fill="#f68e2a"/>
          <path id="Trazado_875580" data-name="Trazado 875580" d="M767.7,1387.7c2.233.6,13.322,2.87,14.213,4.026l-.165,1.335c-4.827-1.309-9.735-2.328-14.553-3.665A2.618,2.618,0,0,1,767.7,1387.7Z" transform="translate(-697.035 -1178.591)" fill="#df7124"/>
          <path id="Trazado_875581" data-name="Trazado 875581" d="M1350.574,699.09l.113-.17c-.193-1.818-1.5-2.516-2.092-4.044-.373-.958-.538-2.028-.83-3.016a9.221,9.221,0,0,0-.887-2.207c-1.917-3.1-9.568-10.893-12.869-12.64-1.1-.582-10.8-6.3-11.051-6.58l.057-.285c.705-.1,1.75.6,2.438.924a65.665,65.665,0,0,1,14.2,8.924c.672.552,1.394.941,2.021,1.554,1.674,1.632,4.818,6.775,6.459,7.495.252-.175.382-.167.437-.5.295-1.837-2.8-7.014-3.912-8.62a41.485,41.485,0,0,0-12.622-11.277c-.644-.337-1.309-.387-1.962-.658-1.231-.509-2.342-1.314-3.6-1.781-.632-.236-1.311-.229-1.955-.415a36.145,36.145,0,0,0-3.922-1.262c-1.137-.193-2.276-.429-3.419-.568a2.341,2.341,0,0,1-1.356-.455l.132-.2a26.521,26.521,0,0,1,11.042,2.2,7.413,7.413,0,0,0,2.745.823,13.432,13.432,0,0,0-3.122-1.3,2.154,2.154,0,0,1-.892-.318c-.174-1.446,0-2.981-.288-4.391-.205-1.01-.9-2.151-.571-3.162,1.88-.132,3.821.83,5.648.634.115-.012.229-.028.344-.045,7.82,1.328,15.647,8.183,20.076,14.458A33.9,33.9,0,0,1,1356,684.516c5.127,2.821,7.426,8.049,9.7,13.157l.747.179a32.23,32.23,0,0,0,6.125,1.75c2.281.835,4.479,1.795,6.688,2.8,2.981,1.816,5.2,3.79,6.063,7.348a17.5,17.5,0,0,1,0,6.488c.856,1.349,1.908,2.417,2.821,3.693,1.25,1.747,1.469,4.139,1.931,6.2l-.7,1.967,1.064.158.521.191c7.306,2.031,12.225,3.434,16.668,9.959A29.882,29.882,0,0,1,1410,752.012c-.215,7.327-1.606,12.126-6.179,18,1.441,3.622,1.4,7.15,1.229,10.992a20.825,20.825,0,0,1-2.644,3.533c-10.784,9.707-14.866-1.231-16.939-.311-.931-1.179-1.3-4.061-1.776-5.589-3.273-10.594-7.443-20.84-16.942-27.363-5-4.261-11.442-5.627-17.553-7.358a1.479,1.479,0,0,1-1.132-.79c.016-3.271-3.653-16.451-4.662-20.555a38.261,38.261,0,0,0-1.158-5.372,26.7,26.7,0,0,0,1.844-7.954,10.49,10.49,0,0,0,4.1-2.4C1350.272,704.712,1350.551,701.91,1350.574,699.09Z" transform="translate(-1116.294 -620.323)" fill="url(#linear-gradient)"/>
          <path id="Trazado_875582" data-name="Trazado 875582" d="M1490.4,796.04c1.6,1.108,2.615,4.235,3.726,5.931a6.39,6.39,0,0,1-1.608-.971C1491,799.728,1490.638,797.9,1490.4,796.04Z" transform="translate(-1249.696 -726.461)" fill="#fff"/>
          <path id="Trazado_875583" data-name="Trazado 875583" d="M1607.288,907.72c.856,1.349,1.908,2.417,2.821,3.693,1.25,1.747,1.469,4.139,1.931,6.2l-.7,1.967c-.2-.031-.4-.066-.6-.1a4.814,4.814,0,0,1-3.557-2.071C1605.451,914.715,1606.691,910.625,1607.288,907.72Z" transform="translate(-1338.261 -811.804)" fill="#fff"/>
          <path id="Trazado_875584" data-name="Trazado 875584" d="M1484.25,829.87c.736,1.007.783,2.7,1.771,3.495.865.7,1.983.321,2.8,1.316a4.6,4.6,0,0,1,.717,2.287c.09,1.134-.17,2.33-.191,3.474-.045,2.335.368,4.761-.042,7.072-.415,2.337-1.615,4.372-2.295,6.615a36.688,36.688,0,0,0-.514,3.776,2.122,2.122,0,0,1-1.208,1.738.855.855,0,0,0-.441.651c-.281,1.288.641,3.29,1.276,4.358,2.683,4.528,7.924,7.561,12.885,8.9a17.9,17.9,0,0,1,2.4.79l-.083.1a33.874,33.874,0,0,1-7.1-2.37,19.821,19.821,0,0,1-8.077-6.889c-5.231-8.436.259-18.628-.151-27.762A26.8,26.8,0,0,0,1484.25,829.87Z" transform="translate(-1244.713 -752.313)" fill="#282f73"/>
          <path id="Trazado_875585" data-name="Trazado 875585" d="M816.184,524.588a1.95,1.95,0,0,0,.205-.04c.807-.266,1.656-1.349,2.387-1.856a23.568,23.568,0,0,1,10.883-3.837,24.257,24.257,0,0,1,4.9-.026,24,24,0,0,1,2.424.359,24.367,24.367,0,0,1,2.377.6c8.216,2.547,11.806,5.813,18.069-2.589a18.332,18.332,0,0,1,2.271,9.459,16.54,16.54,0,0,0-.146,3.405,2,2,0,0,0,1.344,1.63c1.922.7,4.969-.436,6.716-1.325a16.823,16.823,0,0,0,2.974-2l.684-.582.434.049a4.932,4.932,0,0,1,.592,1.851,32.826,32.826,0,0,1,.09,10.652,35.294,35.294,0,0,1-2.729,7.846c-.455.932-1.705,2.2-1.835,3.141a9.435,9.435,0,0,0,3.3-.325,18,18,0,0,1-10.987,7.962,12.992,12.992,0,0,1-2.641.427l-.146,2.688a6.01,6.01,0,0,1-.587,3.363c-4.332,9.683-6.624,28.377-17.574,32.7a10.256,10.256,0,0,1-8.07-.3,4.06,4.06,0,0,1-.653-.375c-1.212-1.382-3.882-2.653-5.419-4.019-4.443-3.95-8.978-9.273-11.207-14.848-.609-1.521-.651-3.233-1.271-4.747-.285-.7-.83-.743-1.479-.976a10.856,10.856,0,0,1-5.259,2.738,51.324,51.324,0,0,1-8.344-17.571c-1.757-6.554-1.938-13.263,1.582-19.288a21.973,21.973,0,0,1,13.947-10.3,18.243,18.243,0,0,0-7.992-.42c-1.073.219-3.436,1.363-4.271,1.03l-.017-.337a2.475,2.475,0,0,1,.634-.491c3.853-2.115,8.6-2,12.7-.832l-.29.172c.184.035.368.066.549.1.092.017.184.035.276.054a2.094,2.094,0,0,0,1.589-.12l-.457-.156C815.406,526.718,816.505,525.7,816.184,524.588Z" transform="translate(-719.255 -513.38)" fill="#0b1558"/>
          <path id="Trazado_875586" data-name="Trazado 875586" d="M870.365,564.93c2.886.771,5.879,1.031,8.768,1.858a27.928,27.928,0,0,0-4.813,4.28c-1.158,1.167-2.17,2.5-3.214,3.776-.1-.21-.193-.42-.288-.632C869.135,570.453,868.866,568.816,870.365,564.93Z" transform="translate(-775.132 -549.853)" fill="#282f73"/>
          <path id="Trazado_875587" data-name="Trazado 875587" d="M843.068,587.08a18.752,18.752,0,0,0,2.243,5.507c-2.023,3.733-3.764,8.792-2.311,13.048a1.364,1.364,0,0,0,.448.634l.309-.068a14.338,14.338,0,0,0,.243-3.328,19.589,19.589,0,0,1,2.233-8.865c1.342,1.807,3.325,4.273,3.03,6.667a62.683,62.683,0,0,1-3.611,10.532,4.725,4.725,0,0,1-1.321,1.535,9.965,9.965,0,0,0-2.929-.542l.163-.252c-.953-.856-3.375-1.278-4.639-1.67C835.842,600.265,837.09,595.31,843.068,587.08Z" transform="translate(-750.061 -566.78)" fill="#282f73"/>
          <path id="Trazado_875588" data-name="Trazado 875588" d="M889.2,574.73c9.433,4.169,10.431,11.169,17.43,16.749,5.183,4.132,10.695,4.566,17.05,3.884a29.244,29.244,0,0,1-3.452,1.469c-7.1,2.184-15.218-1.028-21.255-4.731-2-1.224-3.929-2.851-5.974-3.924l-.245.12.031.561-.5,1.74-.109.05c-3.162,1.349-7.157,7.32-10.886,9.471,1.021-2.724,2.74-5.8,2.967-8.7.243-3.108-1.759-5.608-3.684-7.8A37.5,37.5,0,0,1,889.2,574.73Z" transform="translate(-783.688 -557.342)" fill="#282f73"/>
          <path id="Trazado_875589" data-name="Trazado 875589" d="M879.1,524.588a1.948,1.948,0,0,0,.205-.04c.807-.266,1.656-1.349,2.387-1.856a23.567,23.567,0,0,1,10.883-3.837,24.256,24.256,0,0,1,4.9-.026,24.008,24.008,0,0,1,2.424.359,24.4,24.4,0,0,1,2.377.6c8.216,2.547,11.806,5.813,18.069-2.589a18.33,18.33,0,0,1,2.271,9.459,16.549,16.549,0,0,0-.146,3.405,2,2,0,0,0,1.344,1.63c1.922.7,4.969-.436,6.716-1.325a16.829,16.829,0,0,0,2.974-2l.684-.582.434.049a4.93,4.93,0,0,1,.592,1.851,32.819,32.819,0,0,1,.09,10.652,4.434,4.434,0,0,0-.873.316c-1.2.872-2.167,4.181-3.556,5.511-3.243,3.106-8.78,4.431-13.14,4.436-12.343.014-15.161-9.143-22.588-16.5,7.867,2.273,13.921,8.3,22.2,9.4,3.368.446,6.572.017,9.31-2.177a3.207,3.207,0,0,0,1.488-2.059c-1.127-.54-4.261,2.509-5.65,2.877-7.74,2.047-15.51-4.58-22.012-7.565-2-.92-4.174-1.163-6.226-1.894a52.184,52.184,0,0,1-5.62-2.955c6.771-1.773,10.176-1.054,16.341,2.12a19.417,19.417,0,0,0,7.247,2.332c1.941.158,4.766-.064,6.24-1.488a1.46,1.46,0,0,0,.483-1.139l-.307-.3c-.79-.064-1.49.6-2.193.917-5.172,2.337-10.308-1.835-14.855-3.606-4.858-1.894-9.678-1.3-14.345.792a28.564,28.564,0,0,0-8.134-1.738l-.458-.156C878.317,526.718,879.416,525.7,879.1,524.588Z" transform="translate(-782.166 -513.38)" fill="#282f73"/>
          <path id="Trazado_875590" data-name="Trazado 875590" d="M1094.3,562.692l.684-.582.434.049a4.93,4.93,0,0,1,.592,1.851,2.16,2.16,0,0,0-.462.488c-.984,1.436-3.556,4.4-5.426,4.6a1.146,1.146,0,0,1-1.108-.375l.028-.307c1.165-.858,2.627-1.2,3.752-2.075.894-.7,1.17-1.988,2.068-2.66l.641.337a7.3,7.3,0,0,0-.4-1.3Z" transform="translate(-942.965 -547.699)" fill="#0b1558"/>
          <path id="Trazado_875591" data-name="Trazado 875591" d="M857.192,634.65c6.224,6.931,11.5,10.843,20.675,13.138a39.62,39.62,0,0,0,7.214,1.321c.417.024.835.035,1.252.038l-.146,2.688a6.011,6.011,0,0,1-.587,3.363c-4.332,9.683-6.624,28.377-17.574,32.7a10.257,10.257,0,0,1-8.07-.3,4.081,4.081,0,0,1-.653-.375c-1.212-1.382-3.882-2.653-5.419-4.019-4.443-3.95-8.978-9.273-11.207-14.848-.608-1.521-.651-3.233-1.271-4.747-.285-.7-.83-.743-1.479-.976-.729-.443-1.481-.882-2.172-1.384a9.6,9.6,0,0,1-3.684-6.12,5.6,5.6,0,0,1,1.075-4.424,6.423,6.423,0,0,1,4.283-2.148,9.874,9.874,0,0,1,2.929.542c2.262,1.493,3.349,3.816,4.264,6.249.96-1.759,1.764-3.585,2.794-5.316,2.679-4.493,5.691-8.57,7.273-13.64Z" transform="translate(-748.092 -603.131)" fill="#f59b9d"/>
          <path id="Trazado_875592" data-name="Trazado 875592" d="M975.338,799.51c.677.415,1.031,1.415,1.49,2.057a2.637,2.637,0,0,0,1.891,1.17c.95.116,1.5-.45,2.172-1.012.34-.283.13-.186.606-.252l.356.71-.076.073c-.217.212-.434.424-.665.62a3.323,3.323,0,0,1-2.688.7,3.479,3.479,0,0,1-2.485-1.382A3.41,3.41,0,0,1,975.338,799.51Z" transform="translate(-856.059 -729.113)" fill="#d33134"/>
          <path id="Trazado_875593" data-name="Trazado 875593" d="M994.063,749.536c-1.691-2.528-3.023-6.231-2.625-9.3l.224-.075a5.458,5.458,0,0,1,.481,1.351,33.6,33.6,0,0,0,1.075,3.863,32.287,32.287,0,0,1,1.472,3.971,1.315,1.315,0,0,1-.882,1.04,3.839,3.839,0,0,1-3.033.043l-.285-.318C991.27,749.572,993.027,749.893,994.063,749.536Z" transform="translate(-867.679 -683.759)" fill="#d33134"/>
          <path id="Trazado_875594" data-name="Trazado 875594" d="M1017.7,724.372c.144-.01.285-.019.429-.024a2.3,2.3,0,0,1,1.915.658,2.813,2.813,0,0,1,.722,2.078,5.133,5.133,0,0,1-1.9,3.832,2.273,2.273,0,0,1-.627.17,2.108,2.108,0,0,1-1.533-.5,2.663,2.663,0,0,1-.644-1.684A5.8,5.8,0,0,1,1017.7,724.372Z" transform="translate(-887.203 -671.673)" fill="#0b1558"/>
          <path id="Trazado_875595" data-name="Trazado 875595" d="M1021.917,705.461c-1.686-.559-3.589-1.7-5.382-1.8-1.115-.064-2.179.384-3.311.295a1.8,1.8,0,0,1-.759-.887,1.335,1.335,0,0,1,.156-1.224,3.067,3.067,0,0,1,1.773-1.156c2.526-.734,5.858.191,8.113,1.415A6.034,6.034,0,0,1,1021.917,705.461Z" transform="translate(-884.407 -653.395)" fill="#0b1558"/>
          <path id="Trazado_875596" data-name="Trazado 875596" d="M926.556,680.264c.177-.012.356-.019.533-.026,2.056-.08,4.783.184,6.3,1.729a1.691,1.691,0,0,1,.5,1.431,1.891,1.891,0,0,1-.427.455c-1.026.795-2.908.127-4.019-.139a11.354,11.354,0,0,0-5.478.5,1.731,1.731,0,0,1-1.689-.266c-.155-.377-.259-.5-.059-.9C922.955,681.609,925.094,680.614,926.556,680.264Z" transform="translate(-815.425 -637.959)" fill="#0b1558"/>
          <path id="Trazado_875597" data-name="Trazado 875597" d="M932.731,706.14c.241-.012.479-.023.719-.016a3.013,3.013,0,0,1,2.108,1.1,4.7,4.7,0,0,1,.962,3.58,5.14,5.14,0,0,1-1.969,3.7,6.007,6.007,0,0,1-.788.17,2.3,2.3,0,0,1-1.816-.623,4.289,4.289,0,0,1-.979-3.111A6.608,6.608,0,0,1,932.731,706.14Z" transform="translate(-822.195 -657.748)" fill="#0b1558"/>
          <path id="Trazado_875598" data-name="Trazado 875598" d="M936.754,710.1a5.294,5.294,0,0,1,1.082.434,1.441,1.441,0,0,1,.285,1.2,1.747,1.747,0,0,1-1.316-.175A2.259,2.259,0,0,1,936.754,710.1Z" transform="translate(-826.542 -660.788)" fill="#fff"/>
          <path id="Trazado_875599" data-name="Trazado 875599" d="M1194.956,676.582c3.3-7.351,6.82-13.2,14.055-17.223,6.884-3.823,16.081-5.233,23.705-3.028l-.344.045c-1.828.2-3.766-.769-5.648-.634-.333,1.012.368,2.153.571,3.162.286,1.41.113,2.948.288,4.391a2.153,2.153,0,0,0,.891.318,13.332,13.332,0,0,1,3.122,1.3,7.447,7.447,0,0,1-2.745-.823,26.52,26.52,0,0,0-11.042-2.2l-.132.2a2.342,2.342,0,0,0,1.356.455c1.144.137,2.283.375,3.42.568a36.15,36.15,0,0,1,3.922,1.262c.644.186,1.325.182,1.955.415,1.255.467,2.368,1.269,3.6,1.781.653.271,1.316.321,1.962.658a41.513,41.513,0,0,1,12.621,11.277c1.108,1.606,4.207,6.782,3.912,8.62-.054.333-.182.328-.436.5-1.641-.719-4.783-5.86-6.459-7.495-.63-.613-1.349-1-2.021-1.554a65.657,65.657,0,0,0-14.2-8.924c-.689-.321-1.733-1.026-2.438-.925l-.057.285c.252.278,9.952,6,11.051,6.58,3.3,1.747,10.952,9.537,12.869,12.64a9.307,9.307,0,0,1,.887,2.207c.295.988.458,2.059.83,3.016.6,1.528,1.9,2.229,2.092,4.044l-.113.17c-.024,2.818-.3,5.622-2.391,7.752a10.514,10.514,0,0,1-4.1,2.4,26.718,26.718,0,0,1-1.844,7.955c-2.766,6.488-8.879,10.2-14.989,13.022-.1,2.75-.425,5.506-.665,8.247-.1,1.068-.045,2.969-.566,3.877l-.184.09c-2.705,1.288-2.689,2.773-4.172,5.056-2.313,1.226-8.042,4.658-9.579,6.4-1.6,1.094-4.834,4.832-5.938,5.266a22.106,22.106,0,0,1-4.184-11.44,21.182,21.182,0,0,1-7.428-1.587,14.237,14.237,0,0,1-8.089-7.995c-2.2-5.681-.023-11.7,2.8-16.739a60.781,60.781,0,0,0,3.339-6.018,7.654,7.654,0,0,0,.663-3.761c-.351-3.455-4.108-9.12-5.587-12.728-1.882-4.591-2.686-9.817-.705-14.513A11.188,11.188,0,0,1,1194.956,676.582Z" transform="translate(-1018.147 -618.901)" fill="url(#linear-gradient-2)"/>
          <path id="Trazado_875600" data-name="Trazado 875600" d="M1200.768,757.29c-.068,1.151-.969,2.771-1.346,3.9a28.37,28.37,0,0,0-1.115,4.358,24.286,24.286,0,0,0-.484,4c-.012,1.285.344,2.9.036,4.12l-.3-.292a17.742,17.742,0,0,1-.917-9.433A9.9,9.9,0,0,1,1200.768,757.29Z" transform="translate(-1024.996 -696.85)" fill="#fff"/>
          <path id="Trazado_875601" data-name="Trazado 875601" d="M1240.633,822.471c-5.877-9.294-9.483-17.508-9.893-28.667-.09-2.413.24-4.8.224-7.214.149.106.1.556.111.719a21.452,21.452,0,0,0,.5,3.507c.566,8.127,3.219,15.355,5.952,22.913l.417.87c2.575,5.589,7.37,13.7,13.468,15.874,3.622,1.29,7.412.066,10.8-1.335-.1,2.75-.425,5.507-.665,8.247-.1,1.068-.045,2.969-.566,3.877l-.184.089c-2.7,1.288-2.688,2.773-4.172,5.056-2.313,1.226-8.042,4.658-9.579,6.4-1.6,1.094-4.834,4.832-5.938,5.266a22.105,22.105,0,0,1-4.184-11.44,62.974,62.974,0,0,1,.847-9.945C1238.692,831.918,1240.159,827.336,1240.633,822.471Z" transform="translate(-1051.259 -719.24)" fill="#0b1558"/>
          <path id="Trazado_875602" data-name="Trazado 875602" d="M1235.679,745.81a25.67,25.67,0,0,0,5.763,5.408c6.011,4.066,16.124,7.216,23.177,9.216,2.785.79,6.082,1.153,8.631,2.559,1.748.964,3.212,2.917,4.554,4.379a6.931,6.931,0,0,1,3.686-4.41,4.418,4.418,0,0,1,3.519-.182c1.95.773,2.365,2.285,3.226,3.993a.528.528,0,0,0,.057.071c-.024,2.818-.3,5.622-2.391,7.752a10.517,10.517,0,0,1-4.1,2.4,26.714,26.714,0,0,1-1.844,7.955c-2.766,6.488-8.879,10.2-14.989,13.022-3.389,1.4-7.179,2.625-10.8,1.335-6.1-2.172-10.893-10.287-13.468-15.874l-.417-.87c-2.735-7.556-5.389-14.786-5.952-22.913A69.552,69.552,0,0,1,1235.679,745.81Z" transform="translate(-1054.014 -688.077)" fill="#f59b9d"/>
          <path id="Trazado_875603" data-name="Trazado 875603" d="M1300.5,879.838l.587-.359c.3.311.215.156.321.415l-.069,1.745c.116.071.229.144.344.21.811.474,1.858.349,2.611.894l-.257.457a4.082,4.082,0,0,1-3.269-.976A3.153,3.153,0,0,1,1300.5,879.838Z" transform="translate(-1104.497 -790.224)" fill="#d33134"/>
          <path id="Trazado_875604" data-name="Trazado 875604" d="M1300.86,860a14.321,14.321,0,0,0,1.146-2.809c.245-1.151.056-2.618.552-3.672l.472.066a8.97,8.97,0,0,1-1.261,6.471c-.106-.257-.024-.1-.321-.415Z" transform="translate(-1104.854 -770.386)" fill="#d33134"/>
          <path id="Trazado_875605" data-name="Trazado 875605" d="M1259.58,891.533l.141-.316a5.11,5.11,0,0,0,.29-.948,2.311,2.311,0,0,1,1.156-1.615,2.163,2.163,0,0,1,1.769-.113,2.315,2.315,0,0,1,1.226,1.037,1.482,1.482,0,0,1-.179,1.318c-.488.8-2.368,1.365-3.25,1.46-.245.026-.49.038-.736.045Z" transform="translate(-1073.309 -797.044)" fill="#df77a1"/>
          <path id="Trazado_875606" data-name="Trazado 875606" d="M1430.662,833.75a2.813,2.813,0,0,1,1.964.92,1.465,1.465,0,0,1,.094,1.132l-.295.111a9.058,9.058,0,0,0-.856-.766,1.556,1.556,0,0,0-1.368-.368,2.058,2.058,0,0,0-1.356,1.226,3.22,3.22,0,0,0-.125,2.6,1.774,1.774,0,0,0,1.007.873,2.937,2.937,0,0,0,1.653-.634l.29-.172.439.382.026.509a1.8,1.8,0,0,1-.929.778,2.919,2.919,0,0,1-2.431.024,2.39,2.39,0,0,1-1.08-1.594,4.211,4.211,0,0,1,.269-3.464A3.729,3.729,0,0,1,1430.662,833.75Z" transform="translate(-1201.594 -755.278)" fill="#ee5859"/>
          <path id="Trazado_875607" data-name="Trazado 875607" d="M1331.055,813.677c.144-.009.288-.021.434-.024a5.718,5.718,0,0,1,4.436,1.368,1.722,1.722,0,0,1,.536,1.441l-.347.264c-.74-.151-.955-.472-1.5-.976-1.542-.672-2.7.035-4.235.363a1.416,1.416,0,0,1-1.46-.217c-.1-.255-.236-.391-.12-.667C1329.15,814.378,1330.277,814.005,1331.055,813.677Z" transform="translate(-1126.168 -739.92)" fill="#0b1558"/>
          <path id="Trazado_875608" data-name="Trazado 875608" d="M1251.57,824.31a7.256,7.256,0,0,1,1.406.21,2.143,2.143,0,0,1,1.337.88c-.62,1.323-4.278.818-5.858,1.729-.071.04-.139.083-.208.123-.469.509-.79.948-1.493,1.04l-.264-.37a2.376,2.376,0,0,1,.542-1.42C1248.162,824.98,1249.794,824.569,1251.57,824.31Z" transform="translate(-1063.307 -748.064)" fill="#0b1558"/>
          <path id="Trazado_875609" data-name="Trazado 875609" d="M1261.273,844.6a2.84,2.84,0,0,1,1.823.516,3.579,3.579,0,0,1,1.358,2.622,5.044,5.044,0,0,1-1.311,3.825c-.333.092-.684.134-1.024.193a2.06,2.06,0,0,1-1.13-.649,5.844,5.844,0,0,1-.941-4.408A2.663,2.663,0,0,1,1261.273,844.6Z" transform="translate(-1073.616 -763.569)" fill="#0b1558"/>
          <path id="Trazado_875610" data-name="Trazado 875610" d="M1357.167,863.262c1.479-.016,3.882-.286,5.238.222a1.422,1.422,0,0,1,.873.83c.3.946-.38,1.969-.781,2.8a4.723,4.723,0,0,1-3.342,1.033,2.386,2.386,0,0,1-1.646-.894C1356.591,866.1,1356.959,864.6,1357.167,863.262Z" transform="translate(-1147.691 -777.764)" fill="#df77a1"/>
          <path id="Trazado_875611" data-name="Trazado 875611" d="M1341.9,831.479a3.672,3.672,0,0,1,.719-.009,2.664,2.664,0,0,1,1.719,1.361,5.472,5.472,0,0,1,.481,3.979,3.228,3.228,0,0,1-1.788,2.111,2.5,2.5,0,0,1-2.1-.915,4.148,4.148,0,0,1-.908-3.172A4.259,4.259,0,0,1,1341.9,831.479Z" transform="translate(-1134.77 -753.524)" fill="#0b1558"/>
          <path id="Trazado_875612" data-name="Trazado 875612" d="M1317.629,892.45a.745.745,0,0,1,.243.573,12.1,12.1,0,0,1-2.358,7.471,5.248,5.248,0,0,1-3.566,2.052c-1.795.123-2.986-.835-4.261-1.936a11.362,11.362,0,0,1-2.516-3.945C1309.62,896.183,1313.643,894.393,1317.629,892.45Z" transform="translate(-1108.148 -800.135)" fill="#fff"/>
          <path id="Trazado_875613" data-name="Trazado 875613" d="M1637.2,1301.33a34.829,34.829,0,0,0,7.65-1.384,25.254,25.254,0,0,1,4.547-1.316,106.57,106.57,0,0,0-10.874,8.584C1638.117,1305.24,1637.7,1303.281,1637.2,1301.33Z" transform="translate(-1361.876 -1110.526)" fill="#fff"/>
          <path id="Trazado_875614" data-name="Trazado 875614" d="M1483.352,1537.784a57.173,57.173,0,0,0,7.025-2.724,36.8,36.8,0,0,0,2.429,3.823l3.528,6.688,1.429,3.5q.98,2.589,1.908,5.2a37.817,37.817,0,0,1,.29,13.781q-.5,1.8-1.052,3.58c-9.374-.25-18.77.2-28.139-.057,2.377-1.573,4.434-2.644,6.306-4.9C1484.1,1558.195,1484.333,1548.17,1483.352,1537.784Z" transform="translate(-1234.695 -1291.199)" fill="#228691"/>
          <path id="Trazado_875615" data-name="Trazado 875615" d="M553.7,1382.18q2.646.807,5.332,1.467a20.333,20.333,0,0,1,3.441.79,1.354,1.354,0,0,1,.384.425c-.347,3.408-.443,6.832-.776,10.237l-.234-.205q-1.744-3.357-3.783-6.542T553.7,1382.18Z" transform="translate(-533.896 -1174.373)" fill="#fff"/>
          <path id="Trazado_875616" data-name="Trazado 875616" d="M1275.349,924.812c6.11-2.823,12.225-6.537,14.989-13.023a38.353,38.353,0,0,1,1.158,5.372c1.009,4.1,4.679,17.284,4.662,20.555a1.483,1.483,0,0,0,1.132.79c6.11,1.731,12.56,3.1,17.553,7.358,9.5,6.523,13.669,16.772,16.942,27.363.472,1.528,8.009,25.276,7.209,28.9a13.405,13.405,0,0,0,.264,2.422,6.708,6.708,0,0,0,.455,1.172c.5,1.95.915,3.912,1.323,5.884,1.066,4.849,2.17,9.693,2.948,14.6.705,4.509,1.078,8.3-1.472,12.338l-1.257,1.45c-4.127,3.38-14.077,8.473-19.343,9.645l-1.28.425-1.276.316c-3.212.823-6.445,1.835-9.695,2.469-2.033.4-4.321.271-6.28.837a3.519,3.519,0,0,1-2.665-1.389,45.947,45.947,0,0,1-3.486-6.278,12.984,12.984,0,0,0-2.644-3.844c-.2-.684-.59-1.313-.8-2.011.238-.656.436-.715.988-1.113q5.617-3.484,11.162-7.089c-1.094-5.759-2.169-12.916-6.393-17.326-5.169-5.4-26.49-9.1-34.127-9.9-3.405-.356-6.794-.385-10.214-.4l-1.2-3.969a8.833,8.833,0,0,0-1.321-3.332c-1.189-1.655-2.875-2.1-4.771-2.38.813-12.735,3.929-23.741,8.254-35.695,1.269-3.507,2.879-6.919,4.014-10.469,1.54-1.743,7.266-5.176,9.579-6.4,1.483-2.283,1.464-3.771,4.172-5.056l.184-.09c.521-.908.467-2.809.566-3.877C1274.922,930.319,1275.252,927.565,1275.349,924.812Z" transform="translate(-1064.392 -814.914)" fill="#4260c6"/>
          <path id="Trazado_875617" data-name="Trazado 875617" d="M1364.72,1099.14c.274,3.139-1.179,12.966-.556,14.911.148.465,1.337.915,1.681,1.488a1.553,1.553,0,0,1,.061,1.325c-.257.835-.792,1.071-1.507,1.469a3.22,3.22,0,0,1-1.939-.828,2.375,2.375,0,0,1-.4-1.563,1.309,1.309,0,0,1,.524-.936,3.7,3.7,0,0,0,.8-.83C1364.02,1113,1363.919,1101.793,1364.72,1099.14Z" transform="translate(-1151.613 -958.082)" fill="#fff"/>
          <path id="Trazado_875618" data-name="Trazado 875618" d="M1338.194,1018.81l0,.385c-.026,3.835-1.993,9.919,1.111,13.058a4.551,4.551,0,0,0,3.358,1.255,10.049,10.049,0,0,0-.677,1.328c-1.632,2.016-4.464,7.315-6.478,8.351a2.006,2.006,0,0,1-1.745.137,2.037,2.037,0,0,1-.906-1.05c-1.87-4.193-.313-14.1,1.165-18.406C1335.506,1021.583,1335.487,1020.1,1338.194,1018.81Z" transform="translate(-1128.652 -896.696)" fill="#fff"/>
          <path id="Trazado_875619" data-name="Trazado 875619" d="M1375.017,1035.679c9.252-2.245,15.529-13.4,17.619-14.029-.288,5.412-6.912,20.623-10.936,24.054a2.483,2.483,0,0,1-1.773.748c-1.335-.184-2.325-1.639-2.964-2.7a27.227,27.227,0,0,1-2.622-6.747A9.626,9.626,0,0,1,1375.017,1035.679Z" transform="translate(-1161.006 -898.866)" fill="#a8aef4"/>
          <path id="Trazado_875620" data-name="Trazado 875620" d="M1357.61,924.812c6.11-2.823,12.225-6.537,14.989-13.023a38.284,38.284,0,0,1,1.158,5.372c1.01,4.1,4.679,17.284,4.662,20.555l-.137-.017c-2.089.632-8.367,11.782-17.619,14.029a4.55,4.55,0,0,1-3.358-1.255c-3.1-3.139-1.137-9.223-1.111-13.058l0-.384.184-.09c.521-.908.467-2.809.566-3.877C1357.183,930.319,1357.513,927.565,1357.61,924.812Z" transform="translate(-1146.653 -814.914)" fill="#f59b9d"/>
          <path id="Trazado_875621" data-name="Trazado 875621" d="M1362.1,924.812c6.11-2.823,12.225-6.537,14.989-13.023a38.286,38.286,0,0,1,1.158,5.372l-.151.288c-.754,1.479-1.174,3.106-1.976,4.584-2.738,5.063-7.969,8.752-13.315,10.57-.455.156-.912.309-1.372.455C1361.671,930.319,1362,927.565,1362.1,924.812Z" transform="translate(-1151.141 -814.914)" fill="#ee5859"/>
          <path id="Trazado_875622" data-name="Trazado 875622" d="M1273.75,1219.674c5.889.4,11.65.205,17.524,1.106,5.259.809,10.73,2.71,15.93,3.056a17.371,17.371,0,0,0,6.554-.757c8.214-2.71,9.631-12.122,10.612-19.524.158-1.193.207-3.545.771-4.54.045-.08.1-.158.144-.236l6.228,21.779,2.573,8.669a53.677,53.677,0,0,1,1.884,6.867c.092.55.007,1.094.08,1.615a.733.733,0,0,0,.059.151,26.284,26.284,0,0,0,.474,4.3,3.894,3.894,0,0,1,.127,1.889c-2.382,2.078-8.152,5.328-11.023,7.212-1.094-5.759-2.17-12.917-6.393-17.326-5.169-5.4-26.491-9.1-34.127-9.9-3.405-.356-6.794-.385-10.214-.4Z" transform="translate(-1084.138 -1034.224)" fill="#344e93"/>
          <path id="Trazado_875623" data-name="Trazado 875623" d="M1463.5,1056.232c9.5,6.523,13.669,16.772,16.942,27.363.472,1.528,7.266,30.554,7.474,31.318a6.682,6.682,0,0,0,.455,1.172c.5,1.95.915,3.912,1.323,5.884,1.066,4.849,2.169,9.693,2.948,14.6.705,4.509,1.078,8.3-1.471,12.339l-1.257,1.45c-4.127,3.379-14.077,8.473-19.343,9.646l-1.281.424-1.276.316c-3.212.823-6.445,1.835-9.695,2.469-2.033.4-4.32.271-6.28.837a3.519,3.519,0,0,1-2.665-1.389,45.945,45.945,0,0,1-3.485-6.278,12.976,12.976,0,0,0-2.644-3.844c-.2-.684-.589-1.314-.8-2.011.238-.656.436-.714.988-1.113q5.617-3.484,11.162-7.089c2.868-1.884,8.638-5.134,11.022-7.212a3.87,3.87,0,0,0-.127-1.889,26.566,26.566,0,0,1-.474-4.3.708.708,0,0,1-.059-.151c-.073-.524.012-1.069-.08-1.616a53.637,53.637,0,0,0-1.884-6.867l-2.573-8.669-6.228-21.779a27.928,27.928,0,0,0-.99-3.887c-1.167-4.179-2.7-8.57-2.684-12.94.014-4.773,1.809-10.879,5.339-14.258A9.767,9.767,0,0,1,1463.5,1056.232Z" transform="translate(-1213.046 -925.281)" fill="#a8aef4"/>
          <path id="Trazado_875624" data-name="Trazado 875624" d="M1538.17,1364.324l.25-.054a9.23,9.23,0,0,1,1.318,3.516,2.324,2.324,0,0,1-1.094.839A26.265,26.265,0,0,1,1538.17,1364.324Z" transform="translate(-1286.2 -1160.686)" fill="#fff"/>
          <path id="Trazado_875625" data-name="Trazado 875625" d="M1556.027,1356.544a10.817,10.817,0,0,1,5.82.929,22.31,22.31,0,0,0-3.311-.342c-3.976,0-7.24,1.988-9.954,4.735a23.45,23.45,0,0,1,12.291,1.16,12.085,12.085,0,0,1,1.566.849c-4.257-1.071-8.2-2.059-12.6-1.113-1.2.259-2.6,1.057-3.773,1.054.01-.057.059-.38.073-.429a2.332,2.332,0,0,0,.16-.59,2.917,2.917,0,0,1,.512-1.823C1548.6,1358.52,1553.147,1357.053,1556.027,1356.544Z" transform="translate(-1292.237 -1154.741)" fill="#4260c6"/>
          <path id="Trazado_875626" data-name="Trazado 875626" d="M1446.449,1416.565c.033.047.064.094.1.139a2.042,2.042,0,0,0,1.564.818c2.438.208,5.183-.665,7.523-1.3,9.369-2.556,18.956-6.261,27.181-11.482a77.46,77.46,0,0,0,9.822-7.806c.705,4.509,1.078,8.3-1.471,12.339l-1.257,1.45c-4.127,3.379-14.077,8.473-19.343,9.645l-1.281.424-1.276.316c-3.212.823-6.445,1.835-9.695,2.469-2.033.4-4.32.271-6.28.837a3.518,3.518,0,0,1-2.665-1.389,45.931,45.931,0,0,1-3.485-6.278,12.98,12.98,0,0,0-2.644-3.844c-.2-.684-.589-1.314-.8-2.012.238-.656.436-.714.988-1.113C1444.624,1411.94,1445.331,1414.358,1446.449,1416.565Z" transform="translate(-1213.046 -1185.644)" fill="#7eaaf3"/>
          <path id="Trazado_875627" data-name="Trazado 875627" d="M870.94,1262.221c6.674.019,13.442.288,20.1.031l6.113.061,3.634-.012c8.985.234,17.989-.177,26.976.066,1.9.283,3.582.724,4.771,2.379a8.833,8.833,0,0,1,1.321,3.332l1.2,3.969a101.09,101.09,0,0,1,10.214.4c7.636.8,28.957,4.5,34.127,9.9,4.226,4.41,5.3,11.57,6.393,17.326q-5.543,3.6-11.162,7.089c-.552.4-.752.458-.988,1.113.212.7.6,1.328.8,2.012a12.975,12.975,0,0,1,2.644,3.844,45.909,45.909,0,0,0,3.486,6.278,3.521,3.521,0,0,0,2.665,1.389c1.96-.566,4.247-.441,6.28-.837,3.252-.632,6.483-1.644,9.695-2.469a22.242,22.242,0,0,1,.74,3.757,15.38,15.38,0,0,1-.026,4.641,57.145,57.145,0,0,1-7.025,2.724c-8.014,3.016-16.23,5.653-24.347,8.386-5.165,1.738-11.513,4.2-16.8,5.217-3.266.623-11.869-.083-15.676-.156q-11.475-.166-22.948-.554a78.652,78.652,0,0,1-9.447-.436c-6.54,3.346-18.09,8.749-20.493,16.13a15.43,15.43,0,0,0-.609,5.179c-2.58-.12-13.312.3-14.89-.1a148.84,148.84,0,0,0,1.722-21.788l-.127-.014a2.019,2.019,0,0,1,.422-.854,5.992,5.992,0,0,0,1.295-.665c.1-.073.2-.151.3-.224-2.358-.076-15.258-.528-16.458.564-.153-.085-.3-.172-.455-.264-2.79-1.705-3.445-7.542-4.184-10.57l-2.764-10.65a11.639,11.639,0,0,1-3.167-1.729,44.791,44.791,0,0,1-12.374-13c-.521-1.028-.95-2.094-1.394-3.158l-1.314-2.655-.238-.769.165-1.335q.874-2.416,1.667-4.858l.528-1.483,1.313-3.422.564-1.446c.347-.778.762-1.514,1.174-2.259,1.521.512,3.054,1,4.559,1.559-1.224-6.051-2.736-12.079-4.219-18.074a6.213,6.213,0,0,1,2.693-3.1C839.509,1261.8,865.841,1262.226,870.94,1262.221Z" transform="translate(-744.242 -1082.629)" fill="#344e93"/>
          <path id="Trazado_875628" data-name="Trazado 875628" d="M1057.4,1408.83a8.071,8.071,0,0,1,7.928,6.855,6.038,6.038,0,0,1-1.141,4.7,6.479,6.479,0,0,1-4.677,2.186,8.227,8.227,0,0,1-8.042-7.108,6.015,6.015,0,0,1,1.2-4.5A6.339,6.339,0,0,1,1057.4,1408.83Z" transform="translate(-914.242 -1194.738)" fill="#5480ce"/>
          <path id="Trazado_875629" data-name="Trazado 875629" d="M834.372,1347.65c1.521.512,3.054,1,4.559,1.559,1.549,7.153,3.5,14.209,5.294,21.3.83,3.287,1.446,6.629,2.262,9.919.33,1.111.67,2.217.96,3.337a11.642,11.642,0,0,1-3.167-1.729,44.787,44.787,0,0,1-12.374-13c-.521-1.028-.95-2.094-1.394-3.158l-1.314-2.656-.238-.769.165-1.335q.874-2.416,1.667-4.858l.528-1.483,1.313-3.422.564-1.446C833.542,1349.131,833.959,1348.4,834.372,1347.65Z" transform="translate(-744.242 -1147.986)" fill="#f59b9d"/>
          <path id="Trazado_875630" data-name="Trazado 875630" d="M835.54,1424.95c1.368.7,2.656,2.882,3.707,4.066,3.009,3.384,8.212,8.73,12.268,10.482.33,1.111.67,2.217.96,3.337a11.641,11.641,0,0,1-3.167-1.729,44.78,44.78,0,0,1-12.374-13C836.412,1427.077,835.981,1426.013,835.54,1424.95Z" transform="translate(-749.27 -1207.056)" fill="#df77a1"/>
          <path id="Trazado_875631" data-name="Trazado 875631" d="M859.879,1268.98l56.181.248,20.861-.059c3.328-.014,6.768-.255,10.087-.057,1.363.08,2.719.163,3.7,1.21a5.687,5.687,0,0,1,1.283,2.42c1.773,5.733,3.214,11.612,4.776,17.406l9.683,36.95c.851,3.292,4.224,13.51,4.155,15.989a1.486,1.486,0,0,1-.552,1.132,3.1,3.1,0,0,1-1.931.587c-1.243-6.8-3.4-13.6-5.141-20.307-2.988-11.5-5.872-23.007-9.009-34.469q-1.266-4.563-2.427-9.157a46.724,46.724,0,0,0-2.592-8.678,5.708,5.708,0,0,0-2.455-.361c-6.891-.217-13.862.016-20.758.024l-44.93-.017c-8.131.007-16.322.245-24.448.033A5.255,5.255,0,0,1,859.879,1268.98Z" transform="translate(-765.18 -1087.869)" fill="#5480ce"/>
          <path id="Trazado_875632" data-name="Trazado 875632" d="M994.911,1596.006c2.99-.526,10.046-.144,13.4-.144,6.818,0,14.914-.356,21.616.04l-.743.687c-6.54,3.346-18.09,8.749-20.494,16.131a15.429,15.429,0,0,0-.608,5.179c-2.58-.12-13.313.3-14.89-.1A148.976,148.976,0,0,0,994.911,1596.006Z" transform="translate(-869.742 -1337.55)" fill="#fff"/>
          <path id="Trazado_875633" data-name="Trazado 875633" d="M891.565,1262.219c6.674.019,13.442.288,20.1.031l6.113.061,3.634-.012c8.985.234,17.989-.177,26.976.066,1.9.283,3.582.724,4.771,2.38a8.832,8.832,0,0,1,1.321,3.332l1.2,3.969a101.12,101.12,0,0,1,10.214.4c7.636.8,28.958,4.5,34.127,9.9,4.226,4.41,5.3,11.57,6.393,17.326q-5.543,3.6-11.162,7.089c-.552.4-.752.458-.988,1.113.212.7.6,1.328.8,2.012a12.976,12.976,0,0,1,2.643,3.844A45.942,45.942,0,0,0,1001.2,1320a3.523,3.523,0,0,0,2.665,1.389c1.96-.566,4.247-.441,6.28-.837,3.252-.632,6.483-1.644,9.695-2.469a22.268,22.268,0,0,1,.74,3.757,15.385,15.385,0,0,1-.026,4.641,57.149,57.149,0,0,1-7.025,2.724c-8.014,3.016-16.23,5.653-24.347,8.386-5.165,1.738-11.513,4.2-16.8,5.217-3.266.623-11.869-.083-15.676-.156q-11.475-.166-22.948-.555a78.546,78.546,0,0,1-9.447-.436l.743-.686c1.733-.2,3.273-1.292,4.995-1.641l25.618.08c3.983.024,8.186-.208,12.143.144a3.113,3.113,0,0,0,1.931-.587,1.474,1.474,0,0,0,.552-1.132c.068-2.479-3.3-12.7-4.155-15.989l-9.683-36.95c-1.561-5.794-3-11.673-4.776-17.406a5.671,5.671,0,0,0-1.283-2.42c-.979-1.047-2.335-1.127-3.7-1.21-3.316-.2-6.759.042-10.086.057l-20.861.059-56.181-.248a2.3,2.3,0,0,0-1.078-.125,5.564,5.564,0,0,0-2.337,1.974c-.035.054-.071.111-.106.165l-.1-.13a4.479,4.479,0,0,1,1.778-2.281c.236-.181.224-.38.3-.66C860.134,1261.8,886.466,1262.223,891.565,1262.219Z" transform="translate(-764.867 -1082.626)" fill="#0b1558"/>
          <path id="Trazado_875634" data-name="Trazado 875634" d="M1378.655,1502.736c1.96-.566,4.247-.441,6.28-.837,3.252-.632,6.483-1.644,9.695-2.469a22.225,22.225,0,0,1,.741,3.756c-5.193,2.906-14.294,5.582-20.088,7.5-9.193,3.035-18.463,6.111-27.507,9.563a16.7,16.7,0,0,0-1.366-6.86c7.266-1.625,14.445-4.511,21.505-6.872C1370.686,1505.592,1376.329,1504.116,1378.655,1502.736Z" transform="translate(-1139.662 -1263.972)" fill="#4260c6"/>
          <path id="Trazado_875635" data-name="Trazado 875635" d="M1334,1436.6c6.78,2.031,10.068,6.582,17.961,6.615a12.975,12.975,0,0,1,2.644,3.844,45.906,45.906,0,0,0,3.485,6.278,3.521,3.521,0,0,0,2.665,1.389c-2.325,1.377-7.966,2.854-10.74,3.78-7.058,2.358-14.239,5.247-21.505,6.872a14.868,14.868,0,0,1-1.33-6.313c-.339-1.481.38-3.641-.653-4.766a2.681,2.681,0,0,1-1.429-1.663c-.233-1.054-.507-2.1-.759-3.155-.186-.825-.422-1.642-.637-2.46l-.717-2.613C1325.572,1441.392,1330.17,1437.765,1334,1436.6Z" transform="translate(-1121.758 -1215.959)" fill="#f59b9d"/>
          <path id="Trazado_875636" data-name="Trazado 875636" d="M1334.333,1457.86c-3.634,2.464-4.79,5.021-7.667,7.867-.186-.825-.422-1.641-.637-2.46l.321-.226c.78-.568,1.429-1.307,2.16-1.938A19.515,19.515,0,0,1,1334.333,1457.86Z" transform="translate(-1124.089 -1232.205)" fill="#ee5859"/>
          <path id="Trazado_875637" data-name="Trazado 875637" d="M1331.95,1473.8c.962-.663,1.432-2.309,1.99-3.33a14.848,14.848,0,0,1,6.7-6.176,22.161,22.161,0,0,0-4.756,5.823c-.743,1.337-1.545,4.511-2.5,5.344A2.667,2.667,0,0,1,1331.95,1473.8Z" transform="translate(-1128.613 -1237.119)" fill="#ee5859"/>
          <path id="Trazado_875638" data-name="Trazado 875638" d="M1340.741,1489.316c1.6-.16,4.5-6.629,5.577-8.228a18.993,18.993,0,0,1,4.509-4.9c-2.316,3.724-4.226,7.45-4.648,11.89a2.265,2.265,0,0,0,.389,1.87c2.325-.2,4.252-9.353,7.426-10.271a1.623,1.623,0,0,1,1.427.163c1.132.665,1.469,2.08,1.835,3.236a3.984,3.984,0,0,0,2.16,2.578c3.446,1.641,8.915-.828,12.235-2.068a3.521,3.521,0,0,0,2.665,1.389c-2.325,1.377-7.967,2.854-10.74,3.781-7.058,2.358-14.24,5.247-21.505,6.872A14.829,14.829,0,0,1,1340.741,1489.316Z" transform="translate(-1135.322 -1246.213)" fill="#344e93"/>
          <path id="Trazado_875639" data-name="Trazado 875639" d="M1278.84,1304.21a101.154,101.154,0,0,1,10.213.4c7.636.8,28.958,4.5,34.127,9.9,4.226,4.41,5.3,11.57,6.394,17.326q-5.543,3.6-11.162,7.089c-.552.4-.752.457-.988,1.113.212.7.6,1.328.8,2.012-7.893-.033-11.181-4.585-17.961-6.615-3.825,1.165-8.424,4.792-11.013,7.808C1285.365,1330.354,1282.757,1317.074,1278.84,1304.21Z" transform="translate(-1088.027 -1114.79)" fill="#4260c6"/>
          <path id="Trazado_875640" data-name="Trazado 875640" d="M538.776,877.6c2.561-.545,5.436-1.278,8.056-1.094l.5.052a11.18,11.18,0,0,0,.642,1.625l1.865,2.311c.457.481.91.972,1.384,1.439,1.273.858,2.566,1.653,3.9,2.417l2,.988a35.6,35.6,0,0,0,4.493,1.53c.592.151,1.184.314,1.785.427a35.353,35.353,0,0,0,10.832.21l1.493-.375,2.377-.981a9.933,9.933,0,0,0,1.627-1.441,9.4,9.4,0,0,1,.472-1.307c5.346,2.4,18.932,9.714,21.187,15.171a34.083,34.083,0,0,0,.057,5.4c.073,2.813.054,5.641.033,8.457.064,11.391-1.415,22.677-2.646,33.971-.764,7.021-1.233,14.161-2.406,21.123-5.1,0-31.431-.422-33.535.462a6.213,6.213,0,0,0-2.693,3.1c1.483,5.995,2.995,12.02,4.219,18.074-1.507-.554-3.037-1.047-4.559-1.559-.413.745-.83,1.481-1.174,2.259l-.564,1.446-1.314,3.422-.528,1.483q-.8,2.444-1.667,4.858c-.891-1.156-11.98-3.422-14.213-4.026a2.619,2.619,0,0,0-.5,1.7,4.635,4.635,0,0,1-.038,2.13l-.215.141c-2.658-.21-5.37-.165-8.037-.238q-7.729-.156-15.442-.7-5.943-.407-11.857-1.141c-1.759-.219-3.587-.745-5.342-.8l-.274.285a1.358,1.358,0,0,0-.384-.425,20.537,20.537,0,0,0-3.441-.79q-2.685-.662-5.332-1.467a117.067,117.067,0,0,1-13.7-6.08l-.856-.528a11.077,11.077,0,0,1-3.809-3.528c-2.445-3.962-1.247-9.077-.257-13.286.182-.8.422-1.571.682-2.349a2.412,2.412,0,0,0,.229-.238,2.273,2.273,0,0,0,.266-1.5c-.908-1.646,13.593-33.613,14.959-36.381l.62-1.323c.976-2.356,1.969-4.7,2.828-7.106,1.993-4.672,4.429-9.1,6.61-13.68a111.331,111.331,0,0,1,7.577-11.251,5.158,5.158,0,0,0,1.035-1.594c1.189-.667,4.521-4.926,5.964-6.2C519.532,883.7,528.706,879.994,538.776,877.6Z" transform="translate(-469.724 -787.929)" fill="#faa742"/>
          <path id="Trazado_875641" data-name="Trazado 875641" d="M930.9,911.38c1.665,3.342,3.2,6.8,5.139,9.99q-.941.835-1.905,1.641c-1.448-3.481-3.191-6.811-4.858-10.19A9.9,9.9,0,0,0,930.9,911.38Z" transform="translate(-820.904 -814.601)" fill="#df7124"/>
          <path id="Trazado_875642" data-name="Trazado 875642" d="M792.452,1321.84c4.144,1.9,8.051,4.3,12.24,6.087-.413.745-.83,1.481-1.174,2.259a42.556,42.556,0,0,1-5.549-2.314q-3.916-1.687-7.848-3.328C790.875,1323.628,791.608,1322.682,792.452,1321.84Z" transform="translate(-714.561 -1128.263)" fill="#f68e2a"/>
          <path id="Trazado_875643" data-name="Trazado 875643" d="M919.2,918.471l2.377-.981c1.67,3.38,3.412,6.709,4.858,10.19a20.227,20.227,0,0,1-4.526,2.379Q920.516,924.276,919.2,918.471Z" transform="translate(-813.201 -819.27)" fill="#f68e2a"/>
          <path id="Trazado_875644" data-name="Trazado 875644" d="M555.05,1238.49c.295.2.58.394.858.618,2.424,1.95,9.492,4.7,12.678,6.273,6.254,3.29,19.317,8.5,23.9,12.732-8.6-4.339-17.274-8.464-25.979-12.6-3.86-1.835-8.018-3.354-11.695-5.516-8.063-.266-17.784,4.085-24.184,8.775.2-.269.4-.528.627-.776C536.771,1241.919,547.1,1238.827,555.05,1238.49Z" transform="translate(-516.267 -1064.569)"/>
          <path id="Trazado_875645" data-name="Trazado 875645" d="M782.193,1333.31q3.934,1.638,7.848,3.328a42.718,42.718,0,0,0,5.549,2.313l-.564,1.446-1.314,3.422c-4.665-1.573-9.374-2.813-13.964-4.629a18.266,18.266,0,0,0,1.658-4.488A13,13,0,0,1,782.193,1333.31Z" transform="translate(-706.637 -1137.028)" fill="#f68e2a"/>
          <path id="Trazado_875646" data-name="Trazado 875646" d="M787.565,1333.31q3.934,1.638,7.848,3.328a42.716,42.716,0,0,0,5.549,2.313l-.563,1.446c-1.554-.42-12.914-4.931-13.619-5.7A13.04,13.04,0,0,1,787.565,1333.31Z" transform="translate(-712.009 -1137.028)" fill="#df7124"/>
          <path id="Trazado_875647" data-name="Trazado 875647" d="M771.836,1358.24c4.589,1.816,9.3,3.059,13.963,4.629l-.528,1.484q-.8,2.444-1.667,4.858c-.892-1.156-11.98-3.422-14.214-4.026a13.671,13.671,0,0,0,1.674-5.084Z" transform="translate(-698.72 -1156.079)" fill="#f68e2a"/>
          <path id="Trazado_875648" data-name="Trazado 875648" d="M777.261,1358.24c4.589,1.816,9.3,3.059,13.964,4.629l-.528,1.484c-2.507-.559-12.365-3.16-14.206-4.252Z" transform="translate(-704.146 -1156.079)" fill="#df7124"/>
          <path id="Trazado_875649" data-name="Trazado 875649" d="M762.53,877.6c2.561-.545,5.436-1.278,8.056-1.094l.5.052a11.166,11.166,0,0,0,.641,1.625l1.865,2.311c.458.481.91.972,1.384,1.439-1.2,2.726-2.953,6.443-4.905,8.681l-1-1.139c-.924-1.589-2.571-2.856-3.561-4.5l-.936-1.674A24.118,24.118,0,0,1,762.53,877.6Z" transform="translate(-693.478 -787.929)" fill="#f68e2a"/>
          <path id="Trazado_875650" data-name="Trazado 875650" d="M794.809,893.51c.457.481.91.971,1.384,1.438-1.2,2.726-2.953,6.443-4.905,8.681l-1-1.139A90.589,90.589,0,0,0,794.809,893.51Z" transform="translate(-714.691 -800.945)" fill="#df7124"/>
          <path id="Trazado_875651" data-name="Trazado 875651" d="M777.234,876.6l.5.052a11.193,11.193,0,0,0,.641,1.625c-2.012,2.332-4.075,4.575-6.214,6.792l-.936-1.674C772.263,881.946,775.873,877.536,777.234,876.6Z" transform="translate(-700.126 -788.023)" fill="#df7124"/>
          <path id="Trazado_875652" data-name="Trazado 875652" d="M762.53,877.6c2.561-.545,5.436-1.278,8.056-1.094-1.361.936-4.971,5.346-6.007,6.794A24.215,24.215,0,0,1,762.53,877.6Z" transform="translate(-693.478 -787.929)" fill="#f68e2a"/>
          <path id="Trazado_875653" data-name="Trazado 875653" d="M799.425,899.61c1.274.858,2.566,1.653,3.9,2.417l2,.988a35.625,35.625,0,0,0,4.492,1.53c-1.021,3.86-1.63,7.818-2.677,11.669a29.525,29.525,0,0,1-6.287-3.054c-.547-.309-1.057-.686-1.573-1.045a15.514,15.514,0,0,1-4.757-3.825C796.473,906.053,798.223,902.336,799.425,899.61Z" transform="translate(-717.924 -805.606)" fill="#f68e2a"/>
          <path id="Trazado_875654" data-name="Trazado 875654" d="M818.727,909.86l2,.988a78.467,78.467,0,0,1-4.474,10.143c-.547-.309-1.057-.686-1.573-1.045C816.2,917.168,817.578,912.9,818.727,909.86Z" transform="translate(-733.33 -813.439)" fill="#df7124"/>
          <path id="Trazado_875655" data-name="Trazado 875655" d="M799.425,899.61c1.274.858,2.566,1.653,3.9,2.417-1.151,3.04-2.523,7.306-4.044,10.089a15.515,15.515,0,0,1-4.757-3.825C796.473,906.053,798.223,902.336,799.425,899.61Z" transform="translate(-717.924 -805.606)" fill="#f68e2a"/>
          <path id="Trazado_875656" data-name="Trazado 875656" d="M850.714,920.54c.592.151,1.184.314,1.785.427a35.353,35.353,0,0,0,10.832.21l1.493-.375q1.316,5.8,2.712,11.589c-.627.215-1.266.413-1.877.67-.637.179-1.281.333-1.929.464s-1.3.241-1.957.328-1.314.149-1.974.186-1.323.054-1.983.045-1.323-.04-1.981-.1-1.316-.135-1.969-.236-1.3-.229-1.948-.377-1.283-.321-1.917-.514a14.92,14.92,0,0,0-1.96-.651C849.085,928.36,849.691,924.4,850.714,920.54Z" transform="translate(-758.822 -821.601)" fill="#f68e2a"/>
          <path id="Trazado_875657" data-name="Trazado 875657" d="M912.87,922.025l1.493-.375q1.316,5.8,2.712,11.589c-.627.215-1.267.413-1.877.67A65.881,65.881,0,0,1,912.87,922.025Z" transform="translate(-808.363 -822.449)" fill="#df7124"/>
          <path id="Trazado_875658" data-name="Trazado 875658" d="M850.707,920.54c.592.151,1.184.314,1.785.427-.707,3.957-1.5,8-2.5,11.89a14.925,14.925,0,0,0-1.96-.651C849.077,928.36,849.683,924.4,850.707,920.54Z" transform="translate(-758.815 -821.601)" fill="#df7124"/>
          <path id="Trazado_875659" data-name="Trazado 875659" d="M885.977,925.32c.743.026,1.486.059,2.229.094l-.04,12.14a6.974,6.974,0,0,1-2.1-.111C885.587,934.664,885.967,928.511,885.977,925.32Z" transform="translate(-787.696 -825.253)" fill="#df7124"/>
          <path id="Trazado_875660" data-name="Trazado 875660" d="M661.88,1000.81c-1.846,5-3.877,9.98-5.507,15.055-4.665,14.534-8.315,32.613-8.657,47.887-3.186-1.571-10.251-4.323-12.678-6.273-.278-.224-.566-.417-.858-.618.172-.943,4.6-8.846,5.462-10.612,4.495-9.256,8.436-18.777,12.9-28.035C655.414,1012.259,658.565,1006.526,661.88,1000.81Z" transform="translate(-595.396 -882.941)" fill="#df7124"/>
        </g>
      </g>
    </g>
  </g>
</svg>
