<svg xmlns="http://www.w3.org/2000/svg" width="28.923" height="24.34" viewBox="0 0 28.923 24.34">
  <g id="Grupo_1099305" data-name="Grupo 1099305" transform="translate(-196 -5816.83)">
    <g id="silueta-de-multiples-usuarios" transform="translate(196 5810.482)">
      <path id="Trazado_875563" data-name="Trazado 875563" d="M17.454,10.526a5.256,5.256,0,0,1,2.446,3.9,4.24,4.24,0,1,0-2.446-3.9Zm-2.779,8.685a4.242,4.242,0,1,0-4.243-4.242A4.242,4.242,0,0,0,14.675,19.211Zm1.8.289h-3.6a5.438,5.438,0,0,0-5.431,5.432v4.4l.011.069.3.095a24.722,24.722,0,0,0,7.385,1.191,15.16,15.16,0,0,0,6.448-1.211l.283-.143h.03v-4.4A5.436,5.436,0,0,0,16.474,19.5Zm7.018-4.379H19.92a5.228,5.228,0,0,1-1.613,3.641,6.454,6.454,0,0,1,4.61,6.176v1.356a14.616,14.616,0,0,0,5.693-1.2l.283-.144h.03v-4.4A5.437,5.437,0,0,0,23.492,15.121Zm-16.26-.289a4.214,4.214,0,0,0,2.256-.655,5.25,5.25,0,0,1,1.973-3.348c0-.079.012-.158.012-.238a4.242,4.242,0,1,0-4.241,4.241Zm3.809,3.93a5.231,5.231,0,0,1-1.612-3.621c-.132-.01-.263-.02-.4-.02h-3.6A5.437,5.437,0,0,0,0,20.552v4.4l.011.068.3.1a25.465,25.465,0,0,0,6.116,1.15V24.938A6.455,6.455,0,0,1,11.041,18.762Z" fill="#ff725d"/>
    </g>
  </g>
</svg>
