<svg xmlns="http://www.w3.org/2000/svg" xmlns:xlink="http://www.w3.org/1999/xlink" width="114.254" height="114.252" viewBox="0 0 114.254 114.252">
  <defs>
    <filter id="Trazado_873160" x="0" y="0" width="114.254" height="114.252" filterUnits="userSpaceOnUse">
      <feOffset dy="3" input="SourceAlpha"/>
      <feGaussianBlur stdDeviation="3" result="blur"/>
      <feFlood flood-opacity="0.161"/>
      <feComposite operator="in" in2="blur"/>
      <feComposite in="SourceGraphic"/>
    </filter>
  </defs>
  <g id="Grupo_1099304" data-name="Grupo 1099304" transform="translate(18141.307 12534.848)">
    <g transform="matrix(1, 0, 0, 1, -18141.31, -12534.85)" filter="url(#Trazado_873160)">
      <path id="Trazado_873160-2" data-name="Trazado 873160" d="M331.013,143.221A48.127,48.127,0,1,1,282.887,95.1,48.127,48.127,0,0,1,331.013,143.221Z" transform="translate(-225.76 -89.1)" fill="#fff"/>
    </g>
    <g id="pay" transform="translate(-18108.846 -12505.537)">
      <path id="Trazado_873250" data-name="Trazado 873250" d="M448,112h4.933v18.088H448Z" transform="translate(-403.601 -102.956)" fill="#2a70ab"/>
      <path id="Trazado_873251" data-name="Trazado 873251" d="M416,120h3.289v14.8H416Z" transform="translate(-374.89 -110.134)" fill="#4db7e5"/>
      <path id="Trazado_873252" data-name="Trazado 873252" d="M286.8,122.467h-3.289L277.755,120H272v14.8h9.044l2.467-2.467H286.8Z" transform="translate(-245.69 -110.134)" fill="#ff9f9b"/>
      <path id="Trazado_873253" data-name="Trazado 873253" d="M74.09,24,56,33.647,70.8,60.78,88.89,51.133Z" transform="translate(-51.891 -24)" fill="#448703"/>
      <path id="Trazado_873254" data-name="Trazado 873254" d="M125.108,204.162l-5.752,3.071-3.116-5.706L122,198.457Z" transform="translate(-105.938 -180.527)" fill="#f98500"/>
      <path id="Trazado_873255" data-name="Trazado 873255" d="M124.333,24,112,30.578,126.8,57.71l12.333-6.578Z" transform="translate(-102.134 -24)" fill="#95cb37"/>
      <g id="Grupo_1099082" data-name="Grupo 1099082" transform="translate(9.866 0)">
        <path id="Trazado_873256" data-name="Trazado 873256" d="M117.8,57.92a6.572,6.572,0,0,1-2.656,8.863L112,61.011Z" transform="translate(-112 -54.434)" fill="#6dbb24"/>
        <path id="Trazado_873257" data-name="Trazado 873257" d="M181.325,30.578a6.555,6.555,0,0,1-5.8-3.486l5.8-3.091,3.149,5.772a6.54,6.54,0,0,1-3.149.806Z" transform="translate(-168.992 -24)" fill="#6dbb24"/>
        <path id="Trazado_873258" data-name="Trazado 873258" d="M234.314,291.486l-5.8,3.091-3.149-5.772a6.57,6.57,0,0,1,8.954,2.68Z" transform="translate(-213.709 -260.867)" fill="#6dbb24"/>
        <path id="Trazado_873259" data-name="Trazado 873259" d="M318.567,237.612l-5.8,3.091a6.572,6.572,0,0,1,2.656-8.863Z" transform="translate(-291.434 -210.479)" fill="#6dbb24"/>
      </g>
      <path id="Trazado_873260" data-name="Trazado 873260" d="M187.689,140.178l-12.328,6.582-3.112-5.7,12.332-6.575Z" transform="translate(-156.191 -123.125)" fill="#fca713"/>
      <path id="Trazado_873261" data-name="Trazado 873261" d="M266.054,126.578a2.326,2.326,0,0,0,3.289,3.289l3.289-3.289a4.651,4.651,0,0,0,6.578,0l1.644-1.644v-2.467h-3.289L271.809,120h-4.485l1.865,3.442Z" transform="translate(-239.743 -110.134)" fill="#ffdad2"/>
      <path id="Trazado_873262" data-name="Trazado 873262" d="M16,344h3.289v14.8H16Z" transform="translate(-16 -311.112)" fill="#2a70ab"/>
      <path id="Trazado_873263" data-name="Trazado 873263" d="M48,360h3.289v11.511H48Z" transform="translate(-44.711 -325.468)" fill="#4db7e5"/>
      <path id="Trazado_873264" data-name="Trazado 873264" d="M89.866,366.161l.822.822h4.933a2.467,2.467,0,1,1,0,4.933h13.155a2.467,2.467,0,1,1,0,4.933H90.862A19.582,19.582,0,0,1,80,373.561v-7.4a6.977,6.977,0,0,1,9.866,0Z" transform="translate(-73.422 -329.162)" fill="#ffdad2"/>
      <path id="Trazado_873265" data-name="Trazado 873265" d="M160,440.822a.822.822,0,0,0,.822.822H167.4a.822.822,0,0,0,0-1.644h-6.578a.822.822,0,0,0-.822.822Z" transform="translate(-145.2 -397.246)" fill="#ff9f9b"/>
    </g>
  </g>
</svg>
