<svg xmlns="http://www.w3.org/2000/svg" xmlns:xlink="http://www.w3.org/1999/xlink" width="96.501" height="96.5" viewBox="0 0 96.501 96.5">
  <defs>
    <filter id="Trazado_873160" x="0" y="0" width="96.501" height="96.5" filterUnits="userSpaceOnUse">
      <feOffset dy="3" input="SourceAlpha"/>
      <feGaussianBlur stdDeviation="3" result="blur"/>
      <feFlood flood-opacity="0.161"/>
      <feComposite operator="in" in2="blur"/>
      <feComposite in="SourceGraphic"/>
    </filter>
  </defs>
  <g id="Grupo_1099303" data-name="Grupo 1099303" transform="translate(-827.498 -1048.887)">
    <g transform="matrix(1, 0, 0, 1, 827.5, 1048.89)" filter="url(#Trazado_873160)">
      <path id="Trazado_873160-2" data-name="Trazado 873160" d="M313.261,134.345A39.251,39.251,0,1,1,274.011,95.1,39.251,39.251,0,0,1,313.261,134.345Z" transform="translate(-225.76 -89.1)" fill="#0d66bf"/>
    </g>
    <g id="pay-per-click" transform="translate(810.183 1056)">
      <path id="Trazado_873295" data-name="Trazado 873295" d="M86.206,46.509a2.736,2.736,0,0,0-1.734.617,2.92,2.92,0,0,0-4.892-.56c-.05-.061-.1-.12-.158-.177a20.319,20.319,0,0,0,3.784-11.872A20.514,20.514,0,1,0,62.694,55.031c.2,0,.38,0,.558-.007l4.309,7.462a8.711,8.711,0,0,0,7.718,4.458h4.76a8.925,8.925,0,0,0,8.916-8.913V49.258a2.752,2.752,0,0,0-2.749-2.749ZM69.8,53.766l.062-.023v.13Z" fill="#ffd54f"/>
      <path id="Trazado_873296" data-name="Trazado 873296" d="M101.82,89.427h.166c.178,0,.355-.008.532-.016a4.3,4.3,0,0,1,2.656-.345,15.577,15.577,0,0,0,3.97-1.456v-8.7a2.923,2.923,0,1,1,5.846,0V82.26a15.691,15.691,0,0,0-13-24.229h-.166a15.7,15.7,0,0,0,0,31.395h0Z" transform="translate(-39.287 -39.212)" fill="#ffc107"/>
      <path id="Trazado_873297" data-name="Trazado 873297" d="M87.271,73.731a15.717,15.717,0,0,1,15.121-15.689q-.2-.007-.409-.01h-.166a15.7,15.7,0,0,0,0,31.395h.166q.205,0,.409-.01A15.716,15.716,0,0,1,87.272,73.731Z" transform="translate(-39.284 -39.213)" fill="#ebb000"/>
      <path id="Trazado_873298" data-name="Trazado 873298" d="M191.494,118.239c0-3.792-3.063-4.436-5.1-4.863-2.269-.48-3-.764-3-2.3a2.537,2.537,0,0,1,2.736-2.265,2.878,2.878,0,0,1,2.407,1.189,1.313,1.313,0,0,0,2.189-1.45,5.311,5.311,0,0,0-3.283-2.218V105.3a1.313,1.313,0,1,0-2.625,0v1.038a5.007,5.007,0,0,0-4.049,4.741c0,3.788,3.06,4.436,5.093,4.866,2.271.477,3,.76,3,2.292a2.537,2.537,0,0,1-2.737,2.265,2.869,2.869,0,0,1-2.405-1.187,1.313,1.313,0,1,0-2.192,1.445,5.374,5.374,0,0,0,3.284,2.215v1.041a1.313,1.313,0,1,0,2.625,0v-1.038a5.007,5.007,0,0,0,4.049-4.741Z" transform="translate(-123.433 -80.144)" fill="#ffd54f"/>
      <path id="Trazado_873299" data-name="Trazado 873299" d="M246.632,231.964a2.736,2.736,0,0,0-1.734.617,2.92,2.92,0,0,0-4.892-.56,2.917,2.917,0,0,0-3.877-.6v-6.269a2.923,2.923,0,1,0-5.846,0v14.172l-1.16-2.007a4.127,4.127,0,0,0-2.519-1.948,4.315,4.315,0,0,0-3.295.46,2,2,0,0,0-.734,2.736l5.411,9.37a8.711,8.711,0,0,0,7.718,4.458h4.759a8.925,8.925,0,0,0,8.916-8.913v-8.772a2.752,2.752,0,0,0-2.749-2.749Z" transform="translate(-160.426 -185.455)" fill="#d3b08d"/>
      <g id="Grupo_1099104" data-name="Grupo 1099104" transform="translate(61.817 14.002)">
        <path id="Trazado_873300" data-name="Trazado 873300" d="M291.892,371.195l.062-.023v-.755q-.2.1-.4.19Z" transform="translate(-283.914 -331.431)" fill="#ffc107"/>
        <path id="Trazado_873301" data-name="Trazado 873301" d="M241.361,34.518a20.386,20.386,0,0,1-3.273,11.1,2.924,2.924,0,0,1,1.238.77,20.319,20.319,0,0,0,3.784-11.872A20.538,20.538,0,0,0,222.6,14c-.294,0-.586.008-.877.02a20.54,20.54,0,0,1,19.639,20.5Z" transform="translate(-221.722 -14.002)" fill="#ffc107"/>
        <path id="Trazado_873302" data-name="Trazado 873302" d="M223.089,387.951c-.452.049-.907.085-1.367.1.291.012.583.02.877.02.2,0,.38,0,.558-.007Z" transform="translate(-221.722 -347.047)" fill="#ffc107"/>
      </g>
      <g id="Grupo_1099105" data-name="Grupo 1099105" transform="translate(63.995 36.779)">
        <path id="Trazado_873303" data-name="Trazado 873303" d="M365.206,309.676a1.094,1.094,0,0,0,1.094-1.094V302.93a2.917,2.917,0,0,0-2.188-1.078v6.73A1.094,1.094,0,0,0,365.206,309.676Z" transform="translate(-350.714 -293.143)" fill="#c6a383"/>
        <path id="Trazado_873304" data-name="Trazado 873304" d="M313.777,225.157v12.516a1.094,1.094,0,0,0,2.188,0V225.218a2.963,2.963,0,0,0-2.66-2.972,2.913,2.913,0,0,0-1.356.2A2.927,2.927,0,0,1,313.777,225.157Z" transform="translate(-304.256 -222.234)" fill="#c6a383"/>
        <path id="Trazado_873305" data-name="Trazado 873305" d="M409.93,309.833a1.094,1.094,0,0,0,1.094-1.094v-5a2.931,2.931,0,0,0-2.188-1.607v6.6a1.094,1.094,0,0,0,1.094,1.094Z" transform="translate(-390.546 -293.396)" fill="#c6a383"/>
        <path id="Trazado_873306" data-name="Trazado 873306" d="M377.223,311.714v11.463a8.925,8.925,0,0,1-8.916,8.913h2.188a8.925,8.925,0,0,0,8.916-8.913v-8.772a2.754,2.754,0,0,0-2.188-2.691Z" transform="translate(-354.45 -301.926)" fill="#c6a383"/>
        <path id="Trazado_873307" data-name="Trazado 873307" d="M243.814,341.2a4.243,4.243,0,0,0-2.185,0,4.127,4.127,0,0,1,2.516,1.947l2.32,4.016a.55.55,0,0,0,1.027-.275v-1.734l-1.16-2.007A4.127,4.127,0,0,0,243.814,341.2Z" transform="translate(-241.629 -328.06)" fill="#c6a383"/>
      </g>
    </g>
  </g>
</svg>
