<svg xmlns="http://www.w3.org/2000/svg" width="29.781" height="31.504" viewBox="0 0 29.781 31.504">
  <g id="Grupo_1099306" data-name="Grupo 1099306" transform="translate(-200 -541.495)">
    <g id="XMLID_2140_" transform="translate(186 541.495)">
      <g id="XMLID_879_" transform="translate(14)">
        <path id="XMLID_4_" d="M43.166,21.731H37.874V18.1L43.6,12.373a.615.615,0,0,0,0-.87L40.988,8.892a.615.615,0,0,0-.87,0l-2.243,2.243V.615A.615.615,0,0,0,37.259,0H14.615A.615.615,0,0,0,14,.615V11.7a.615.615,0,1,0,1.231,0V1.231H36.644V12.366l-5.427,5.427H22.924a.615.615,0,0,0,0,1.231h7.062L27.819,21.19a.616.616,0,0,0-.128.187L25.8,25.669H18.855a.615.615,0,0,0,0,1.231H32.622a.615.615,0,0,0,0-1.231H29.133l1.979-.87a.613.613,0,0,0,.188-.128l5.344-5.344v8.608a3.553,3.553,0,0,0,.876,2.338H17.569a2.341,2.341,0,0,1-2.338-2.338v-10.7a.615.615,0,0,0-1.231,0v10.7A3.573,3.573,0,0,0,17.569,31.5H40.212a3.573,3.573,0,0,0,3.569-3.569V22.346A.615.615,0,0,0,43.166,21.731ZM27.405,25.085l1.05-2.388,1.338,1.338Zm3.46-1.719-.87-.87-.87-.87L40.553,10.2l1.74,1.74Zm11.686,4.57a2.338,2.338,0,1,1-4.676,0V22.962h4.676Z" transform="translate(-14)" fill="#ff725d"/>
        <path id="XMLID_1105_" d="M109.538,76.244A5.538,5.538,0,1,0,104,70.706,5.544,5.544,0,0,0,109.538,76.244Zm0-9.845a4.307,4.307,0,1,1-4.307,4.307A4.312,4.312,0,0,1,109.538,66.4Z" transform="translate(-98.462 -61.158)" fill="#ff725d"/>
        <path id="XMLID_1107_" d="M83.51,354.4H87.8a.615.615,0,1,0,0-1.231H83.51a.615.615,0,1,0,0,1.231Z" transform="translate(-78.656 -331.436)" fill="#ff725d"/>
        <path id="XMLID_1108_" d="M83.51,289.17a.615.615,0,0,0,0,1.231h.623a.615.615,0,0,0,0-1.231Z" transform="translate(-78.656 -271.377)" fill="#ff725d"/>
        <path id="XMLID_1109_" d="M14.615,226.4a.616.616,0,1,0-.435-.18A.62.62,0,0,0,14.615,226.4Z" transform="translate(-14 -211.315)" fill="#ff725d"/>
      </g>
    </g>
  </g>
</svg>
