<svg xmlns="http://www.w3.org/2000/svg" xmlns:xlink="http://www.w3.org/1999/xlink" width="96.501" height="96.5" viewBox="0 0 96.501 96.5">
  <defs>
    <filter id="Trazado_875562" x="0" y="0" width="96.501" height="96.5" filterUnits="userSpaceOnUse">
      <feOffset dy="3" input="SourceAlpha"/>
      <feGaussianBlur stdDeviation="3" result="blur"/>
      <feFlood flood-opacity="0.161"/>
      <feComposite operator="in" in2="blur"/>
      <feComposite in="SourceGraphic"/>
    </filter>
  </defs>
  <g id="Grupo_1099305" data-name="Grupo 1099305" transform="translate(-302.498 -5620.75)">
    <g transform="matrix(1, 0, 0, 1, 302.5, 5620.75)" filter="url(#Trazado_875562)">
      <path id="Trazado_875562-2" data-name="Trazado 875562" d="M313.261,134.345A39.251,39.251,0,1,1,274.011,95.1,39.251,39.251,0,0,1,313.261,134.345Z" transform="translate(-225.76 -89.1)" fill="#0d66bf"/>
    </g>
    <g id="cashier" transform="translate(332.031 5633.352)">
      <path id="Trazado_873218" data-name="Trazado 873218" d="M36.267,297.854v4.89H4v-4.89l.362-5.7a11.033,11.033,0,0,1,6.884-8.594,10.159,10.159,0,0,1,1.544-.46c.77-.158,1.945-.255,1.956-.255a8.633,8.633,0,0,0,2.944-.634,2.771,2.771,0,0,0,4.889,0,8.661,8.661,0,0,0,2.943.635,17.426,17.426,0,0,1,1.956.254,10.22,10.22,0,0,1,1.545.46,11.035,11.035,0,0,1,6.884,8.594Z" transform="translate(-4 -257.774)" fill="#b5e08c"/>
      <path id="Trazado_873219" data-name="Trazado 873219" d="M305.5,393.508a.981.981,0,0,0-.978.978v4.889h1.956v-4.889a.981.981,0,0,0-.978-.978Z" transform="translate(-278.121 -359.295)" fill="none"/>
      <path id="Trazado_873220" data-name="Trazado 873220" d="M327.041,460.291l-.259.978v3.911h3.911v-4.889Z" transform="translate(-298.426 -420.211)" fill="#edb996"/>
      <path id="Trazado_873221" data-name="Trazado 873221" d="M101.2,8.5a2.218,2.218,0,0,0-.567,0c-.946-3.023-3.252-4.374-6.483-4.446a8.547,8.547,0,0,0-8.6,5.757,7.675,7.675,0,0,0,0,4.86,6.988,6.988,0,0,0,2.513,1.652l1.682-3.266a12.681,12.681,0,0,0,4.41,1.545,6.474,6.474,0,0,0,4.019-.626c.1.078,1.476,2.709,2.444,2.22,0,0,2.445-1.6,2.454-1.6C104.207,9.511,102.232,8.631,101.2,8.5Z" transform="translate(-78.012 -4.055)" fill="#425b72"/>
      <path id="Trazado_873222" data-name="Trazado 873222" d="M257.772,125.641s-.293,3.8-.332,4.439c3.109-.342,4.155-2.19,3.168-5.114v-.01a9.13,9.13,0,0,0-.381-.919C260.218,124.043,257.781,125.641,257.772,125.641Z" transform="translate(-235.176 -113.497)" fill="#f6ccaf"/>
      <path id="Trazado_873223" data-name="Trazado 873223" d="M162.449,249.1c-.059,0-.117-.01-.176-.01a6.05,6.05,0,0,1-2.444-.606v2.962a2.77,2.77,0,0,0,4.889,0v-2.816A5.851,5.851,0,0,1,162.449,249.1Z" transform="translate(-146.14 -227.007)" fill="#f6ccaf"/>
      <path id="Trazado_873224" data-name="Trazado 873224" d="M82.571,124.931a10.1,10.1,0,0,0-.391,1.027c-.557,1.78-.724,4.508,3.227,4.938l-.323-4.312A6.988,6.988,0,0,1,82.571,124.931Z" transform="translate(-75.042 -114.312)" fill="#f6ccaf"/>
      <path id="Trazado_873225" data-name="Trazado 873225" d="M50.477,394.485a.978.978,0,1,0-1.956,0v4.889h1.956Z" transform="translate(-44.61 -359.294)" fill="#9dcc6b"/>
      <path id="Trazado_873226" data-name="Trazado 873226" d="M7.911,460.291H4v4.889H9.867v-4.889Z" transform="translate(-4 -420.211)" fill="#f6ccaf"/>
      <path id="Trazado_873227" data-name="Trazado 873227" d="M118.747,382.377c0,1.964-.008,9.771-.01,11.734H104.07c0-1.963-.008-9.771-.01-11.734Z" transform="translate(-95.27 -349.142)" fill="#f8834b"/>
      <path id="Trazado_873228" data-name="Trazado 873228" d="M250.936,289.692V297.6H248.98v-8.165A17.426,17.426,0,0,1,250.936,289.692Z" transform="translate(-227.459 -264.367)" fill="#f16f39"/>
      <path id="Trazado_873229" data-name="Trazado 873229" d="M151.145,418.217v3.97a2.444,2.444,0,0,0,2.445,2.444h1.525a2.444,2.444,0,0,0,2.444-2.444v-3.97Z" transform="translate(-138.219 -381.833)" fill="#f16f39"/>
      <path id="Trazado_873230" data-name="Trazado 873230" d="M128.421,107.484a6.474,6.474,0,0,1-4.019.626,12.687,12.687,0,0,1-4.41-1.545l-1.682,3.266.323,4.312a5.634,5.634,0,0,0,.381,1.672,6.035,6.035,0,0,0,2.943,3.217,5.915,5.915,0,0,0,2.444.606c.059,0,.116.01.176.01a5.851,5.851,0,0,0,2.269-.469,5.931,5.931,0,0,0,3.686-5.036c.039-.635.332-4.439.332-4.439C129.9,110.193,128.518,107.562,128.421,107.484Z" transform="translate(-108.268 -97.56)" fill="#ffdec7"/>
      <path id="Trazado_873231" data-name="Trazado 873231" d="M106.016,289.428v8.165H104.06v-7.911C104.83,289.525,106,289.428,106.016,289.428Z" transform="translate(-95.27 -264.358)" fill="#f16f39"/>
      <path id="Trazado_873232" data-name="Trazado 873232" d="M343.4,380.048H326.78l2.327-8.8h11.978Z" transform="translate(-298.424 -338.991)" fill="#7d7d7d"/>
      <path id="Trazado_873233" data-name="Trazado 873233" d="M335.093,471.421h-8.311v3.911H343.4v-3.911Z" transform="translate(-298.426 -430.364)" fill="#686969"/>
      <path id="Trazado_873234" data-name="Trazado 873234" d="M456.646,333.96h2.9v3.276h-2.9Z" transform="translate(-416.882 -304.978)" fill="#686969"/>
      <g id="Grupo_1099081" data-name="Grupo 1099081" transform="translate(32.061 24.435)">
        <path id="Trazado_873235" data-name="Trazado 873235" d="M380.565,395.736h0l-3.48.018-3.487.018a.782.782,0,1,0,0,1.564h0l3.479-.018,3.488-.018a.782.782,0,1,0,0-1.564Z" transform="translate(-372.476 -385.762)" fill="#d7d2e2"/>
        <path id="Trazado_873236" data-name="Trazado 873236" d="M370.287,429.471a.794.794,0,0,0-1.1,0,.754.754,0,0,0-.225.548.806.806,0,0,0,.225.557.788.788,0,0,0,1.339-.557A.726.726,0,0,0,370.287,429.471Z" transform="translate(-368.957 -416.329)" fill="#d7d2e2"/>
        <path id="Trazado_873237" data-name="Trazado 873237" d="M413.262,429.221a.76.76,0,0,0-.783.773.785.785,0,0,0,.782.782h0a.785.785,0,0,0,.782-.782.757.757,0,0,0-.782-.773Z" transform="translate(-408.656 -416.305)" fill="#d7d2e2"/>
        <path id="Trazado_873238" data-name="Trazado 873238" d="M453.451,429.387a.776.776,0,0,0-1.106,0,.765.765,0,0,0-.234.548.8.8,0,0,0,.782.782.784.784,0,0,0,.782-.782A.761.761,0,0,0,453.451,429.387Z" transform="translate(-444.806 -416.245)" fill="#d7d2e2"/>
        <path id="Trazado_873239" data-name="Trazado 873239" d="M377.867,282.2v4.547h9.817V282.2Z" transform="translate(-377.084 -282.2)" fill="#d7d2e2"/>
      </g>
      <path id="Trazado_873240" data-name="Trazado 873240" d="M203.783,297.854v4.89H187.65V283.676a2.689,2.689,0,0,0,2.445-1.466c1.551.712,3.126.541,4.9.889a10.194,10.194,0,0,1,1.545.46,11.035,11.035,0,0,1,6.884,8.594Z" transform="translate(-171.517 -257.774)" fill="#a0d76c"/>
      <path id="Trazado_873241" data-name="Trazado 873241" d="M304.521,394.485a.978.978,0,1,1,1.956,0v4.889h-1.956Z" transform="translate(-278.121 -359.294)" fill="#89c24d"/>
      <path id="Trazado_873242" data-name="Trazado 873242" d="M306.477,460.291h3.911v4.889h-5.867v-4.889Z" transform="translate(-278.121 -420.211)" fill="#f2b58a"/>
      <path id="Trazado_873243" data-name="Trazado 873243" d="M196.568,14.616c-.132.082-2.446,1.6-2.454,1.6-.968.488-2.346-2.142-2.444-2.22a6.478,6.478,0,0,1-4.019.626V4.078c3.231.073,5.537,1.424,6.483,4.447a2.2,2.2,0,0,1,.567,0c1.037.127,3.011,1.007,1.868,6.091Z" transform="translate(-171.517 -4.076)" fill="#334658"/>
      <path id="Trazado_873244" data-name="Trazado 873244" d="M257.772,125.641s-.293,3.8-.332,4.439c3.109-.342,4.155-2.19,3.168-5.114v-.01a9.13,9.13,0,0,0-.381-.919C260.218,124.043,257.781,125.641,257.772,125.641Z" transform="translate(-235.176 -113.497)" fill="#f2b58a"/>
      <path id="Trazado_873245" data-name="Trazado 873245" d="M190.095,250.148v2.816a2.689,2.689,0,0,1-2.445,1.466v-3.823a5.665,5.665,0,0,0,2.445-.459Z" transform="translate(-171.517 -228.529)" fill="#f2b58a"/>
      <path id="Trazado_873246" data-name="Trazado 873246" d="M194.993,382.377c0,1.964-.008,9.771-.01,11.734H187.65V382.377Z" transform="translate(-171.517 -349.142)" fill="#f66824"/>
      <path id="Trazado_873247" data-name="Trazado 873247" d="M250.936,289.683v7.911H248.98v-8.165C248.989,289.428,250.156,289.523,250.936,289.683Z" transform="translate(-227.459 -264.358)" fill="#ee5313"/>
      <path id="Trazado_873248" data-name="Trazado 873248" d="M190.857,418.218v3.97a2.445,2.445,0,0,1-2.445,2.445h-.763v-6.415Z" transform="translate(-171.517 -381.834)" fill="#ee5313"/>
      <path id="Trazado_873249" data-name="Trazado 873249" d="M194.113,119.248s-.293,3.8-.332,4.439a5.932,5.932,0,0,1-3.686,5.035,5.645,5.645,0,0,1-2.445.459V117.654a6.478,6.478,0,0,0,4.019-.626C191.767,117.106,193.145,119.736,194.113,119.248Z" transform="translate(-171.517 -107.103)" fill="#ffc69e"/>
    </g>
  </g>
</svg>
