<svg xmlns="http://www.w3.org/2000/svg" width="38.69" height="24.192" viewBox="0 0 38.69 24.192">
  <g id="Grupo_1099305" data-name="Grupo 1099305" transform="translate(-192 -5265.275)">
    <g id="estrechar-la-mano" transform="translate(118.602 5040.307)">
      <path id="Trazado_875555" data-name="Trazado 875555" d="M213.3,524.765l-1.446,1.447a1.2,1.2,0,0,1-1.7-1.7l1.447-1.447a1.2,1.2,0,1,1,1.7,1.7Z" transform="translate(-130.222 -284.245)" fill="#ff725d"/>
      <path id="Trazado_875556" data-name="Trazado 875556" d="M260.426,552.413l-.1.1-2.622,2.621-.1.1a1.179,1.179,0,0,1-1.667,0l-.2-.2a1.179,1.179,0,0,1,0-1.667l2.823-2.823a1.179,1.179,0,0,1,1.667,0l.2.2A1.179,1.179,0,0,1,260.426,552.413Z" transform="translate(-173.738 -310.482)" fill="#ff725d"/>
      <path id="Trazado_875557" data-name="Trazado 875557" d="M316.9,609.064l-.078.078-.014.013-.052.052,0,0,0,0-1.575,1.575-.013.014-.882.882a1.321,1.321,0,0,1-1.867-1.867l2.623-2.622a1.32,1.32,0,1,1,1.867,1.867Z" transform="translate(-227.8 -364.525)" fill="#ff725d"/>
      <path id="Trazado_875558" data-name="Trazado 875558" d="M390.974,666.323l-1.635,1.635a1.32,1.32,0,1,1-1.867-1.868l1.564-1.564a.33.33,0,0,0,.031-.031l.048-.048a1.32,1.32,0,1,1,1.859,1.875Z" transform="translate(-299.461 -419.184)" fill="#ff725d"/>
      <path id="Trazado_875559" data-name="Trazado 875559" d="M445.57,330.33l-1.863,1.862a2.426,2.426,0,0,0-.522-.6l-6.735-5.578a4.345,4.345,0,0,0-3.888-.848,7.811,7.811,0,0,1-2.53.218,4.268,4.268,0,0,1-1.345-.264.737.737,0,0,1-.084-.428,1,1,0,0,1,.519-.78l3.356-1.874h0c1.741-.686,5.012.65,5.351.792a1.8,1.8,0,0,0,.946.251,4.33,4.33,0,0,0,2.165-.775Z" transform="translate(-339.093 -92.483)" fill="#ff725d"/>
      <rect id="Rect치ngulo_401104" data-name="Rect치ngulo 401104" width="4.114" height="14.498" rx="2.057" transform="matrix(0.866, -0.5, 0.5, 0.866, 101.276, 227.026)" fill="#ff725d"/>
      <path id="Trazado_875560" data-name="Trazado 875560" d="M219.929,339a.99.99,0,0,1-.188.155,1.331,1.331,0,0,1-1.6.084l0,0-6.712-4.8a.454.454,0,1,0-.528.738l6.71,4.8c.039.029.078.055.118.081a1.475,1.475,0,0,1-.4,1.6,1.265,1.265,0,0,1-1.32.021q-.218-.17-.434-.342c-.4-.314-.8-.639-1.231-.937l-4.428-3.1a.454.454,0,0,0-.521.743l4.429,3.1c.4.283.8.6,1.188.907l.39.308a1.492,1.492,0,0,1-.391,1.633,1.267,1.267,0,0,1-1.32.021l-.433-.341c-.4-.314-.8-.639-1.231-.938l-1.776-1.247a.454.454,0,1,0-.521.743l1.776,1.243c.216.151.43.312.642.475.082.291.276,1.209-.381,1.658a1.278,1.278,0,0,1-1.325.022l-.414-.327c-.394-.312-.8-.635-1.224-.935a2.225,2.225,0,0,0-2.352-2.87,2.222,2.222,0,0,0-2.437-2.6,2.086,2.086,0,0,0-.59-1.769l-.2-.2a2.086,2.086,0,0,0-2.823-.117,2.106,2.106,0,0,0-3.565-1.124l-.942.943-.883-.6,5.055-8.75c.034-.058.065-.117.094-.177h7.385l-1.862,1.038a1.9,1.9,0,0,0-.98,1.5,1.623,1.623,0,0,0,.257,1.047c.252.385,1.134.544,1.833.611a8.809,8.809,0,0,0,3.008-.231,3.435,3.435,0,0,1,3.077.67l6.735,5.578a1.47,1.47,0,0,1,.5.775.378.378,0,0,0,.009.039,1.208,1.208,0,0,1,.024.166A.91.91,0,0,1,219.929,339Z" transform="translate(-116.097 -97.5)" fill="#ff725d"/>
      <rect id="Rect치ngulo_401105" data-name="Rect치ngulo 401105" width="4.114" height="14.498" rx="2.057" transform="matrix(0.866, 0.5, -0.5, 0.866, 80.647, 225.482)" fill="#ff725d"/>
    </g>
  </g>
</svg>
