<svg xmlns="http://www.w3.org/2000/svg" xmlns:xlink="http://www.w3.org/1999/xlink" width="628.888" height="261.351" viewBox="0 0 628.888 261.351">
  <defs>
    <filter id="Trazado_172526" x="324.616" y="29.208" width="304.273" height="198.728" filterUnits="userSpaceOnUse">
      <feOffset dy="3" input="SourceAlpha"/>
      <feGaussianBlur stdDeviation="3" result="blur"/>
      <feFlood flood-opacity="0.161"/>
      <feComposite operator="in" in2="blur"/>
      <feComposite in="SourceGraphic"/>
    </filter>
    <filter id="Rectángulo_37260" x="0" y="29.208" width="304.273" height="198.728" filterUnits="userSpaceOnUse">
      <feOffset dy="3" input="SourceAlpha"/>
      <feGaussianBlur stdDeviation="3" result="blur-2"/>
      <feFlood flood-opacity="0.161"/>
      <feComposite operator="in" in2="blur-2"/>
      <feComposite in="SourceGraphic"/>
    </filter>
  </defs>
  <g id="Grupo_1099302" data-name="Grupo 1099302" transform="translate(-688.112 -4008.408)">
    <path id="Trazado_875745" data-name="Trazado 875745" d="M29,0H217.025a29,29,0,0,1,29,29V196.625a29,29,0,0,1-29,29H29a29,29,0,0,1-29-29V29A29,29,0,0,1,29,0Z" transform="translate(877.174 4023.959)" fill="#ffdc39"/>
    <path id="Trazado_875746" data-name="Trazado 875746" d="M12-1.5H194.771a13.5,13.5,0,0,1,13.5,13.5V50.675a13.5,13.5,0,0,1-13.5,13.5H12a13.5,13.5,0,0,1-13.5-13.5V12A13.5,13.5,0,0,1,12-1.5ZM194.771,61.175a10.512,10.512,0,0,0,10.5-10.5V12a10.512,10.512,0,0,0-10.5-10.5H12A10.512,10.512,0,0,0,1.5,12V50.675A10.512,10.512,0,0,0,12,61.175Z" transform="translate(891.229 4205.584)" fill="#ff725d"/>
    <g id="Grupo_1099284" data-name="Grupo 1099284" transform="translate(-67 -117.52)">
      <g id="Grupo_1099250" data-name="Grupo 1099250" transform="translate(1081.959 4125.928)">
        <g id="t1-info2" transform="translate(6.769 35.208)">
          <g transform="matrix(1, 0, 0, 1, -333.62, -35.21)" filter="url(#Trazado_172526)">
            <path id="Trazado_172526-2" data-name="Trazado 172526" d="M18.953,0H267.32a18.953,18.953,0,0,1,18.953,18.953V161.775a18.953,18.953,0,0,1-18.953,18.953H18.953A18.953,18.953,0,0,1,0,161.775V18.953A18.953,18.953,0,0,1,18.953,0Z" transform="translate(333.62 35.21)" fill="#fff"/>
          </g>
          <rect id="Rectángulo_37245" data-name="Rectángulo 37245" width="110.685" height="14.7" rx="7.35" transform="translate(12.106 157.698)" fill="#bfbfc1"/>
          <rect id="Rectángulo_37249" data-name="Rectángulo 37249" width="284.495" height="40.642" transform="translate(0.865 25.395)" fill="#bfbfc1"/>
          <rect id="Rectángulo_37250" data-name="Rectángulo 37250" width="262.012" height="1.729" transform="translate(12.106 120.515)" fill="#666"/>
          <rect id="Rectángulo_37251" data-name="Rectángulo 37251" width="262.012" height="1.729" transform="translate(12.106 125.703)" fill="#666"/>
          <rect id="Rectángulo_37252" data-name="Rectángulo 37252" width="262.012" height="1.729" transform="translate(12.106 130.892)" fill="#666"/>
          <rect id="Rectángulo_37253" data-name="Rectángulo 37253" width="262.012" height="1.729" transform="translate(12.106 136.08)" fill="#666"/>
          <rect id="Rectángulo_37254" data-name="Rectángulo 37254" width="262.012" height="1.729" transform="translate(12.106 141.268)" fill="#666"/>
          <rect id="Rectángulo_37255" data-name="Rectángulo 37255" width="262.012" height="1.729" transform="translate(12.106 146.457)" fill="#666"/>
          <rect id="Rectángulo_37256" data-name="Rectángulo 37256" width="134.033" height="28.536" transform="translate(12.106 79.008)" fill="#fff"/>
          <path id="Rectángulo_37256_-_Contorno" data-name="Rectángulo 37256 - Contorno" d="M-.75-.75H134.671V29.175H-.75ZM133.282.639H.639V27.786H133.282Z" transform="translate(12.162 79.064)" fill="#999"/>
          <path id="Rectángulo_37257" data-name="Rectángulo 37257" d="M16.018-1H268.207a17,17,0,0,1,17.018,17.018V162.71a17,17,0,0,1-17.018,17.018H16.018A17,17,0,0,1-1,162.71V16.018A17,17,0,0,1,16.018-1ZM268.207,178a15.306,15.306,0,0,0,15.288-15.288V16.018A15.306,15.306,0,0,0,268.207.729H16.018A15.306,15.306,0,0,0,.729,16.018V162.71A15.306,15.306,0,0,0,16.018,178Z" transform="translate(1 1.318)"/>
          <path id="Trazado_172507" data-name="Trazado 172507" d="M181.2,445.84a2.855,2.855,0,0,1,1.029.138,1.271,1.271,0,0,1,.562.467,8.819,8.819,0,0,1,.519.908l2.093,4h-1.479l-2.292-4.6a.134.134,0,0,0-.2-.121h-1.038a.174.174,0,0,0-.112,0,.551.551,0,0,0-.086.121L177.9,451.34H176.51l2.041-4c.138-.277.268-.519.38-.718a1.935,1.935,0,0,1,.355-.467,1.2,1.2,0,0,1,.519-.233,3.613,3.613,0,0,1,.865-.078Zm.484-.562,2.127-4.471h1.375l-1.894,3.882c-.138.3-.268.545-.372.744a1.488,1.488,0,0,1-.355.45,1.313,1.313,0,0,1-.519.233,4.052,4.052,0,0,1-.813.069h-.562a2.951,2.951,0,0,1-1.029-.138,1.185,1.185,0,0,1-.579-.467,5.96,5.96,0,0,1-.484-.908l-1.859-3.883H178.2l2.093,4.488.078.112a.156.156,0,0,0,.121,0H181.5a.19.19,0,0,0,.182-.1Z" transform="translate(-23.877 -351.103)"/>
          <path id="Trazado_172508" data-name="Trazado 172508" d="M193.8,445.84a2.8,2.8,0,0,1,1.02.138,1.271,1.271,0,0,1,.562.467,7.312,7.312,0,0,1,.527.908l2.093,4h-1.479l-2.326-4.592a.364.364,0,0,0-.078-.121.227.227,0,0,0-.121,0h-1.02a.192.192,0,0,0-.112,0,.553.553,0,0,0-.087.121l-2.291,4.583H189.1l2.041-4,.38-.718a1.728,1.728,0,0,1,.363-.467,1.114,1.114,0,0,1,.51-.233,3.613,3.613,0,0,1,.865-.078Zm.476-.562,2.127-4.471h1.384l-1.859,3.882-.372.744a1.5,1.5,0,0,1-.363.45,1.331,1.331,0,0,1-.51.233,4.182,4.182,0,0,1-.813.069H193.3a2.951,2.951,0,0,1-1.029-.138,1.227,1.227,0,0,1-.579-.467,6.85,6.85,0,0,1-.484-.908l-1.859-3.883h1.479l2.093,4.488a.459.459,0,0,0,.086.112h1.124a.173.173,0,0,0,.147-.1Z" transform="translate(-25.58 -351.103)"/>
          <path id="Trazado_172509" data-name="Trazado 172509" d="M206.41,445.84a2.766,2.766,0,0,1,1.02.138,1.34,1.34,0,0,1,.571.467,8.8,8.8,0,0,1,.519.908l2.093,4h-1.479l-2.292-4.6a.268.268,0,0,0-.078-.121.224.224,0,0,0-.121,0h-1.012a.2.2,0,0,0-.121,0l-.078.121-2.292,4.583h-1.4l2.049-4c.138-.277.268-.519.38-.718a1.574,1.574,0,0,1,.389-.45,1.2,1.2,0,0,1,.519-.233,3.571,3.571,0,0,1,.821-.078Zm.484-.562,2.127-4.471H210.4L208.5,444.69l-.372.744a1.49,1.49,0,0,1-.355.45,1.435,1.435,0,0,1-.519.233,4.125,4.125,0,0,1-.813.069h-.562a3,3,0,0,1-1.038-.138,1.228,1.228,0,0,1-.579-.467,6.906,6.906,0,0,1-.476-.908l-1.825-3.883h1.479l2.093,4.488.086.112a.146.146,0,0,0,.112,0h1.02a.19.19,0,0,0,.138-.1Z" transform="translate(-27.29 -351.103)"/>
        </g>
        <g id="Grupo_1099126" data-name="Grupo 1099126" transform="translate(0 65.659)">
          <circle id="Elipse_4693" data-name="Elipse 4693" cx="13.538" cy="13.538" r="13.538" transform="translate(0 0)" fill="#ff725d" opacity="0.4"/>
          <circle id="Elipse_4692" data-name="Elipse 4692" cx="10.153" cy="10.153" r="10.153" transform="translate(3.384 3.384)" fill="#ff725d"/>
          <text id="_1" data-name="1" transform="translate(11.153 11.092)" fill="#12263f" font-size="5" font-family="Roboto-Black, Roboto" font-weight="800"><tspan x="-1.448" y="0">1</tspan></text>
        </g>
        <g id="Grupo_1099127" data-name="Grupo 1099127" transform="translate(4.061 112.364)">
          <circle id="Elipse_4693-2" data-name="Elipse 4693" cx="13.538" cy="13.538" r="13.538" transform="translate(0)" fill="#ff725d" opacity="0.4"/>
          <circle id="Elipse_4692-2" data-name="Elipse 4692" cx="10.153" cy="10.153" r="10.153" transform="translate(3.384 3.384)" fill="#ff725d"/>
          <text id="_2" data-name="2" transform="translate(11.153 11.092)" fill="#12263f" font-size="5" font-family="Roboto-Black, Roboto" font-weight="800"><tspan x="-1.448" y="0">2</tspan></text>
        </g>
        <g id="Grupo_1099129" data-name="Grupo 1099129" transform="translate(100.179 145.531)">
          <circle id="Elipse_4693-3" data-name="Elipse 4693" cx="13.538" cy="13.538" r="13.538" transform="translate(0 0)" fill="#ff725d" opacity="0.4"/>
          <circle id="Elipse_4692-3" data-name="Elipse 4692" cx="10.153" cy="10.153" r="10.153" transform="translate(3.384 3.384)" fill="#ff725d"/>
          <text id="_4" data-name="4" transform="translate(11.153 11.092)" fill="#12263f" font-size="5" font-family="Roboto-Black, Roboto" font-weight="800"><tspan x="-1.448" y="0">4</tspan></text>
        </g>
        <g id="Grupo_1099130" data-name="Grupo 1099130" transform="translate(11.507 186.822)">
          <circle id="Elipse_4693-4" data-name="Elipse 4693" cx="13.538" cy="13.538" r="13.538" transform="translate(0)" fill="#ff725d" opacity="0.4"/>
          <circle id="Elipse_4692-4" data-name="Elipse 4692" cx="10.153" cy="10.153" r="10.153" transform="translate(3.384 3.384)" fill="#ff725d"/>
          <text id="_5" data-name="5" transform="translate(11.153 11.092)" fill="#12263f" font-size="5" font-family="Roboto-Black, Roboto" font-weight="800"><tspan x="-1.448" y="0">5</tspan></text>
        </g>
        <g id="Grupo_1099124" data-name="Grupo 1099124" transform="translate(123.194 0)">
          <path id="Trazado_172518" data-name="Trazado 172518" d="M129.939,293.839h-1.354v3.743H126V287h4.163a4.644,4.644,0,0,1,2.944.833,2.836,2.836,0,0,1,1.063,2.362,3.459,3.459,0,0,1-.447,1.834,3.167,3.167,0,0,1-1.4,1.171l2.213,4.278v.108h-2.708Zm-1.354-1.963H130.2a1.442,1.442,0,0,0,1.1-.386,1.733,1.733,0,0,0,0-2.139,1.415,1.415,0,0,0-1.09-.393h-1.611Z" transform="translate(-126 -286.988)" fill="#12263f"/>
          <path id="Trazado_172519" data-name="Trazado 172519" d="M143.876,298.961a4.061,4.061,0,0,1-2.924-1.083,3.709,3.709,0,0,1-1.124-2.809v-.2a4.84,4.84,0,0,1,.447-2.132,3.3,3.3,0,0,1,1.306-1.428,3.927,3.927,0,0,1,2.031-.508,3.384,3.384,0,0,1,2.613,1.029,4.061,4.061,0,0,1,.961,2.87v.975H142.32a1.739,1.739,0,0,0,.569,1.036,1.7,1.7,0,0,0,1.151.379,2.213,2.213,0,0,0,1.821-.812l1.117,1.32a3.1,3.1,0,0,1-1.3,1.009A4.345,4.345,0,0,1,143.876,298.961Zm-.271-6.268q-1.076,0-1.279,1.421H144.8v-.19a1.226,1.226,0,0,0-.3-.914A1.212,1.212,0,0,0,143.606,292.693Z" transform="translate(-130.467 -288.217)" fill="#12263f"/>
          <path id="Trazado_172520" data-name="Trazado 172520" d="M154.831,295.962,156.077,291h2.579l-2.565,7.865h-2.5L151,291h2.586Z" transform="translate(-134.078 -288.284)" fill="#12263f"/>
          <path id="Trazado_172521" data-name="Trazado 172521" d="M166.943,298.961a4.061,4.061,0,0,1-2.931-1.083,3.736,3.736,0,0,1-1.124-2.809v-.2a4.738,4.738,0,0,1,.454-2.132,3.283,3.283,0,0,1,1.3-1.428,3.94,3.94,0,0,1,2.031-.508,3.425,3.425,0,0,1,2.62,1.029,4.061,4.061,0,0,1,.961,2.87v.975H165.38a1.746,1.746,0,0,0,.575,1.036,1.665,1.665,0,0,0,1.144.379,2.2,2.2,0,0,0,1.821-.812l1.117,1.32a3.115,3.115,0,0,1-1.293,1.009A4.393,4.393,0,0,1,166.943,298.961Zm-.277-6.268q-1.076,0-1.279,1.421h2.471v-.189a1.2,1.2,0,0,0-.3-.914A1.212,1.212,0,0,0,166.666,292.693Z" transform="translate(-137.918 -288.217)" fill="#12263f"/>
          <path id="Trazado_172522" data-name="Trazado 172522" d="M180,293.156l-.805-.054a1.449,1.449,0,0,0-1.482.724v4.982h-2.45v-7.879h2.295l.081,1.009a1.9,1.9,0,0,1,1.726-1.158,2.58,2.58,0,0,1,.677.088Z" transform="translate(-141.917 -288.213)" fill="#12263f"/>
          <path id="Trazado_172523" data-name="Trazado 172523" d="M187.479,296.617a.575.575,0,0,0-.325-.508,5.068,5.068,0,0,0-1.245-.393,5.578,5.578,0,0,1-1.509-.535,2.458,2.458,0,0,1-.907-.8,1.923,1.923,0,0,1-.318-1.083,2.166,2.166,0,0,1,.9-1.787,3.675,3.675,0,0,1,2.335-.677,4.1,4.1,0,0,1,2.5.677,2.214,2.214,0,0,1,.948,1.855H187.4c0-.629-.338-.941-1-.941a.981.981,0,0,0-.643.21.677.677,0,0,0-.264.535.616.616,0,0,0,.318.535,3.092,3.092,0,0,0,1.022.332,9.866,9.866,0,0,1,1.232.311,2.243,2.243,0,0,1,1.773,2.193,2.064,2.064,0,0,1-.954,1.753,4.738,4.738,0,0,1-4.278.311,3.08,3.08,0,0,1-1.239-.988,2.288,2.288,0,0,1-.44-1.32h2.288a.968.968,0,0,0,.366.8,1.469,1.469,0,0,0,.894.25,1.157,1.157,0,0,0,.751-.2A.677.677,0,0,0,187.479,296.617Z" transform="translate(-144.395 -288.229)" fill="#12263f"/>
          <path id="Trazado_172524" data-name="Trazado 172524" d="M194.38,294.8a4.664,4.664,0,0,1,.46-2.1,3.317,3.317,0,0,1,1.313-1.415,4.062,4.062,0,0,1,2.031-.494,3.608,3.608,0,0,1,2.782,1.1,4.2,4.2,0,0,1,1.015,2.978v.122a4.061,4.061,0,0,1-1.022,2.917,3.622,3.622,0,0,1-2.762,1.083,3.682,3.682,0,0,1-2.708-1.009,3.953,3.953,0,0,1-1.1-2.708Zm2.45.19a2.965,2.965,0,0,0,.338,1.6,1.151,1.151,0,0,0,1.015.508c.873,0,1.32-.677,1.354-2.031v-.25c0-1.408-.447-2.112-1.354-2.112s-1.266.6-1.354,1.821Z" transform="translate(-148.094 -288.217)" fill="#12263f"/>
        </g>
        <g id="Grupo_1099125" data-name="Grupo 1099125" transform="translate(115.071 16.437)">
          <rect id="Rectángulo_37259" data-name="Rectángulo 37259" width="69.719" height="1.449" transform="translate(0 0)" fill="#ff725d"/>
          <path id="Trazado_172525" data-name="Trazado 172525" d="M158.75,311.27l4.569,4.562,4.569-4.562Z" transform="translate(-128.459 -311.27)" fill="#ff725d"/>
        </g>
        <g id="Grupo_1099128" data-name="Grupo 1099128" transform="translate(192.236 115.072)">
          <circle id="Elipse_4693-5" data-name="Elipse 4693" cx="13.538" cy="13.538" r="13.538" transform="translate(0)" fill="#ff725d" opacity="0.4"/>
          <circle id="Elipse_4692-5" data-name="Elipse 4692" cx="10.153" cy="10.153" r="10.153" transform="translate(3.384 3.384)" fill="#ff725d"/>
          <text id="_3" data-name="3" transform="translate(11.153 11.092)" fill="#12263f" font-size="5" font-family="Roboto-Black, Roboto" font-weight="800"><tspan x="-1.448" y="0">3</tspan></text>
        </g>
      </g>
      <g id="Grupo_1099249" data-name="Grupo 1099249" transform="translate(759.373 4125.936)">
        <g id="t1-info1" transform="translate(4.738 35.199)">
          <g transform="matrix(1, 0, 0, 1, -9, -35.21)" filter="url(#Rectángulo_37260)">
            <rect id="Rectángulo_37260-2" data-name="Rectángulo 37260" width="286.273" height="180.728" rx="28" transform="translate(9 35.21)" fill="#fff"/>
          </g>
          <path id="Rectángulo_37246" data-name="Rectángulo 37246" d="M16.018-1H268.207a17,17,0,0,1,17.018,17.018V162.71a17,17,0,0,1-17.018,17.018H16.018A17,17,0,0,1-1,162.71V16.018A17,17,0,0,1,16.018-1ZM268.207,178a15.306,15.306,0,0,0,15.288-15.288V16.018A15.306,15.306,0,0,0,268.207.729H16.018A15.306,15.306,0,0,0,.729,16.018V162.71A15.306,15.306,0,0,0,16.018,178Z" transform="translate(1 1.318)"/>
          <path id="Trazado_172446" data-name="Trazado 172446" d="M29.4,237.123a2.293,2.293,0,0,1,.865.121,1.021,1.021,0,0,1,.458.38,6.652,6.652,0,0,1,.432.744l1.729,3.286H31.6l-1.876-3.779a.624.624,0,0,0-.061-.1.182.182,0,0,0-.1,0H28.7a.121.121,0,0,0-.1,0,.3.3,0,0,0-.069.1l-1.851,3.77H25.54l1.678-3.286c.112-.225.216-.424.311-.588a1.384,1.384,0,0,1,.294-.38,1.02,1.02,0,0,1,.424-.2,3.459,3.459,0,0,1,.674-.061Zm.389-.458,1.729-3.675h1.133l-1.522,3.191c-.112.251-.216.45-.3.614a1.149,1.149,0,0,1-.294.363,1.012,1.012,0,0,1-.424.19,2.863,2.863,0,0,1-.666.061h-.467a2.472,2.472,0,0,1-.865-.112,1.029,1.029,0,0,1-.476-.38,5.63,5.63,0,0,1-.389-.744L25.687,233H26.9l1.729,3.684.069.1a.138.138,0,0,0,.1,0h.865a.156.156,0,0,0,.1-.112Z" transform="translate(-3.455 -76.545)"/>
          <path id="Trazado_172447" data-name="Trazado 172447" d="M38.071,237.123a2.293,2.293,0,0,1,.865.121,1.089,1.089,0,0,1,.467.38,6.829,6.829,0,0,1,.424.744l1.729,3.286H40.345l-1.885-3.779a.3.3,0,0,0-.061-.1.182.182,0,0,0-.1,0h-.865a.138.138,0,0,0-.1,0l-.069.1-1.885,3.77H34.24l1.678-3.286c.112-.225.225-.424.311-.588a1.564,1.564,0,0,1,.294-.38,1.02,1.02,0,0,1,.424-.2,3.459,3.459,0,0,1,.674-.061Zm.4-.458L40.2,232.99h1.124l-1.548,3.191c-.121.251-.225.45-.311.614a1.149,1.149,0,0,1-.294.363.959.959,0,0,1-.424.19,2.82,2.82,0,0,1-.666.061h-.467a2.422,2.422,0,0,1-.865-.112.986.986,0,0,1-.476-.381,5.528,5.528,0,0,1-.4-.744L34.387,233h1.219l1.729,3.684.069.1a.138.138,0,0,0,.1,0h.865a.156.156,0,0,0,.1-.112Z" transform="translate(-4.632 -76.545)"/>
          <path id="Trazado_172448" data-name="Trazado 172448" d="M46.771,237.123a2.266,2.266,0,0,1,.865.121,1,1,0,0,1,.467.38,5.629,5.629,0,0,1,.424.744l1.729,3.286H49.045l-1.885-3.779a.2.2,0,0,0-.061-.1.164.164,0,0,0-.1,0h-.865a.139.139,0,0,0-.1,0l-.069.1-1.876,3.77H42.94l1.678-3.286.311-.588a1.564,1.564,0,0,1,.294-.38,1.072,1.072,0,0,1,.424-.2,3.6,3.6,0,0,1,.674-.061Zm.4-.458L48.9,232.99h1.133l-1.557,3.191c-.121.251-.225.45-.311.614a1.262,1.262,0,0,1-.285.363,1.012,1.012,0,0,1-.424.19,2.9,2.9,0,0,1-.674.061h-.458a2.439,2.439,0,0,1-.865-.112,1.029,1.029,0,0,1-.476-.381,5.522,5.522,0,0,1-.4-.744L43.1,233h1.211l1.729,3.684a.621.621,0,0,0,.061.1.138.138,0,0,0,.1,0h.865A.156.156,0,0,0,47.169,236.665Z" transform="translate(-5.809 -76.545)"/>
          <path id="Trazado_172449" data-name="Trazado 172449" d="M55.471,237.123a2.266,2.266,0,0,1,.865.121.994.994,0,0,1,.467.38,6.65,6.65,0,0,1,.432.744l1.729,3.286H57.754l-1.885-3.779a.2.2,0,0,0-.061-.1.139.139,0,0,0-.1,0h-.865a.138.138,0,0,0-.1,0l-.069.1-1.868,3.77H51.64l1.678-3.286c.121-.225.225-.424.32-.588a1.366,1.366,0,0,1,.285-.38,1.132,1.132,0,0,1,.424-.2,3.6,3.6,0,0,1,.674-.061Zm.4-.458L57.6,232.99h1.133l-1.557,3.191c-.121.251-.216.45-.3.614a1.279,1.279,0,0,1-.294.363,1.012,1.012,0,0,1-.424.19,2.863,2.863,0,0,1-.666.061h-.467a2.439,2.439,0,0,1-.865-.112,1.029,1.029,0,0,1-.476-.381,5.527,5.527,0,0,1-.4-.744L51.8,233h1.211l1.729,3.684.069.1a.121.121,0,0,0,.1,0h.865a.156.156,0,0,0,.1-.112Z" transform="translate(-6.986 -76.545)"/>
          <path id="Trazado_172450" data-name="Trazado 172450" d="M64.181,237.123a2.293,2.293,0,0,1,.865.121,1.021,1.021,0,0,1,.458.381,5.528,5.528,0,0,1,.432.744l1.729,3.286H66.412l-1.876-3.779a.3.3,0,0,0-.061-.1.182.182,0,0,0-.1,0h-.865a.121.121,0,0,0-.1,0,.3.3,0,0,0-.069.1l-1.851,3.77H60.35l1.678-3.286c.112-.225.216-.424.311-.588a1.384,1.384,0,0,1,.294-.38,1.021,1.021,0,0,1,.424-.2,3.459,3.459,0,0,1,.674-.061Zm.389-.458L66.3,232.99h1.133l-1.557,3.191c-.112.251-.216.45-.3.614a1.149,1.149,0,0,1-.294.363,1.012,1.012,0,0,1-.424.19,2.863,2.863,0,0,1-.666.061h-.467a2.473,2.473,0,0,1-.865-.112,1.029,1.029,0,0,1-.476-.38,5.626,5.626,0,0,1-.389-.744L60.5,233h1.211l1.729,3.684.069.1a.138.138,0,0,0,.1,0h.865A.156.156,0,0,0,64.57,236.665Z" transform="translate(-8.164 -76.545)"/>
          <path id="Trazado_172451" data-name="Trazado 172451" d="M72.881,237.125a2.292,2.292,0,0,1,.865.121,1.09,1.09,0,0,1,.467.38,6.823,6.823,0,0,1,.424.744l1.729,3.286H75.155l-1.885-3.779a.3.3,0,0,0-.061-.1.181.181,0,0,0-.1,0h-.865a.138.138,0,0,0-.1,0l-.069.1-1.885,3.77H69.05l1.678-3.286c.112-.225.225-.424.311-.588a1.567,1.567,0,0,1,.294-.381,1.021,1.021,0,0,1,.424-.2,3.459,3.459,0,0,1,.674-.061Zm.4-.458L75.06,233h1.124l-1.548,3.191c-.121.251-.225.45-.311.614a1.151,1.151,0,0,1-.294.363.961.961,0,0,1-.424.19,2.817,2.817,0,0,1-.666.061h-.476a2.439,2.439,0,0,1-.865-.112.986.986,0,0,1-.476-.38,5.523,5.523,0,0,1-.4-.744L69.2,233h1.219l1.729,3.684.069.1a.139.139,0,0,0,.1,0h.865a.156.156,0,0,0,.1-.112Z" transform="translate(-9.341 -76.547)"/>
          <path id="Trazado_172452" data-name="Trazado 172452" d="M81.581,237.123a2.266,2.266,0,0,1,.865.121,1,1,0,0,1,.467.38,6.651,6.651,0,0,1,.432.744l1.729,3.286H83.864l-1.885-3.779a.2.2,0,0,0-.061-.1.147.147,0,0,0-.1,0H80.95a.139.139,0,0,0-.1,0l-.069.1-1.885,3.77H77.75l1.678-3.286.311-.588a1.564,1.564,0,0,1,.294-.38,1.072,1.072,0,0,1,.424-.2,3.6,3.6,0,0,1,.674-.061Zm.4-.458,1.729-3.675h1.176l-1.556,3.191c-.121.251-.225.45-.311.614a1.262,1.262,0,0,1-.285.363,1.013,1.013,0,0,1-.441.164,2.9,2.9,0,0,1-.674.061h-.458a2.438,2.438,0,0,1-.865-.112,1.029,1.029,0,0,1-.476-.38,5.527,5.527,0,0,1-.4-.744L77.906,233h1.211l1.729,3.684a.622.622,0,0,0,.061.1.138.138,0,0,0,.1,0h.865a.156.156,0,0,0,.112-.112Z" transform="translate(-10.518 -76.545)"/>
          <path id="Trazado_172453" data-name="Trazado 172453" d="M93.3,237.123a2.293,2.293,0,0,1,.865.121,1.021,1.021,0,0,1,.458.38,5.525,5.525,0,0,1,.432.744l1.729,3.286H95.532l-1.876-3.779a.3.3,0,0,0-.061-.1.182.182,0,0,0-.1,0h-.865a.121.121,0,0,0-.1,0,.3.3,0,0,0-.069.1l-1.851,3.77H89.47l1.678-3.286c.112-.225.216-.424.311-.588a1.385,1.385,0,0,1,.294-.38,1.021,1.021,0,0,1,.424-.2,3.458,3.458,0,0,1,.674-.061Zm.389-.458,1.729-3.675h1.133L95,236.181c-.112.251-.216.45-.3.614a1.149,1.149,0,0,1-.294.363,1.012,1.012,0,0,1-.424.19,2.863,2.863,0,0,1-.666.061h-.467a2.474,2.474,0,0,1-.865-.112,1.029,1.029,0,0,1-.476-.38,5.633,5.633,0,0,1-.389-.744L89.617,233h1.176l1.729,3.684.069.1a.138.138,0,0,0,.1,0h.865A.156.156,0,0,0,93.69,236.665Z" transform="translate(-12.103 -76.545)"/>
          <path id="Trazado_172454" data-name="Trazado 172454" d="M102,237.123a2.293,2.293,0,0,1,.865.121,1.021,1.021,0,0,1,.458.38,5.53,5.53,0,0,1,.432.744l1.729,3.286h-1.219l-1.92-3.779a.3.3,0,0,0-.061-.1.182.182,0,0,0-.1,0h-.865a.138.138,0,0,0-.1,0l-.069.1-1.842,3.77H98.17l1.678-3.286c.112-.225.225-.424.311-.588a1.384,1.384,0,0,1,.294-.38,1.021,1.021,0,0,1,.424-.2,3.459,3.459,0,0,1,.674-.061Zm.4-.458,1.729-3.675h1.133l-1.548,3.191c-.121.251-.225.45-.311.614a1.149,1.149,0,0,1-.294.363.959.959,0,0,1-.424.19,2.821,2.821,0,0,1-.666.061h-.467a2.387,2.387,0,0,1-.865-.112,1.054,1.054,0,0,1-.484-.38,6.914,6.914,0,0,1-.389-.744L98.317,233h1.211l1.729,3.684.069.1a.138.138,0,0,0,.1,0h.865C102.347,236.786,102.347,236.743,102.4,236.665Z" transform="translate(-13.28 -76.545)"/>
          <path id="Trazado_172455" data-name="Trazado 172455" d="M110.7,237.123a2.266,2.266,0,0,1,.865.121,1.038,1.038,0,0,1,.467.38,5.629,5.629,0,0,1,.424.744l1.729,3.286h-1.211l-1.885-3.779a.2.2,0,0,0-.061-.1.182.182,0,0,0-.1,0h-.865a.138.138,0,0,0-.1,0l-.069.1-1.876,3.77h-1.15l1.678-3.286.311-.588a1.564,1.564,0,0,1,.294-.38,1.072,1.072,0,0,1,.424-.2,3.6,3.6,0,0,1,.675-.061Zm.4-.458,1.729-3.675h1.133l-1.557,3.191c-.121.251-.225.45-.311.614a1.15,1.15,0,0,1-.294.363.926.926,0,0,1-.415.19,2.9,2.9,0,0,1-.674.061h-.458a2.439,2.439,0,0,1-.865-.112.986.986,0,0,1-.476-.381,5.524,5.524,0,0,1-.4-.744L106.982,233H108.2l1.729,3.684.069.1a.138.138,0,0,0,.1,0h.865A.156.156,0,0,0,111.1,236.665Z" transform="translate(-14.456 -76.545)"/>
          <path id="Trazado_172456" data-name="Trazado 172456" d="M119.4,237.123a2.266,2.266,0,0,1,.865.121.994.994,0,0,1,.467.38,6.643,6.643,0,0,1,.432.744l1.729,3.286h-1.211l-1.885-3.779a.2.2,0,0,0-.061-.1.138.138,0,0,0-.1,0h-.865a.139.139,0,0,0-.1,0l-.069.1-1.894,3.77h-1.15l1.678-3.286c.121-.225.225-.424.32-.588a1.236,1.236,0,0,1,.294-.38,1.028,1.028,0,0,1,.415-.2,3.6,3.6,0,0,1,.674-.061Zm.4-.458,1.729-3.675h1.133l-1.556,3.191c-.121.251-.216.45-.3.614a1.279,1.279,0,0,1-.294.363,1.012,1.012,0,0,1-.424.19,2.863,2.863,0,0,1-.666.061h-.467a2.439,2.439,0,0,1-.865-.112,1.029,1.029,0,0,1-.476-.381,5.524,5.524,0,0,1-.4-.744L115.726,233h1.211l1.729,3.684.069.1a.121.121,0,0,0,.1,0h.865a.156.156,0,0,0,.1-.112Z" transform="translate(-15.634 -76.545)"/>
          <path id="Trazado_172457" data-name="Trazado 172457" d="M128.111,237.123a2.293,2.293,0,0,1,.865.121,1.021,1.021,0,0,1,.458.38,5.53,5.53,0,0,1,.432.744l1.729,3.286h-1.219l-1.876-3.779a.3.3,0,0,0-.061-.1.182.182,0,0,0-.1,0h-.865a.121.121,0,0,0-.1,0,.3.3,0,0,0-.069.1l-1.885,3.77H124.28l1.678-3.286c.112-.225.216-.424.311-.588a1.385,1.385,0,0,1,.294-.38,1.021,1.021,0,0,1,.424-.2,3.459,3.459,0,0,1,.674-.061Zm.389-.458,1.729-3.675h1.133l-1.557,3.191c-.112.251-.216.45-.3.614a1.149,1.149,0,0,1-.294.363,1.012,1.012,0,0,1-.424.19,2.863,2.863,0,0,1-.666.061h-.467a2.473,2.473,0,0,1-.865-.112,1.029,1.029,0,0,1-.476-.38,5.629,5.629,0,0,1-.389-.744l-1.5-3.174h1.211l1.729,3.684.069.1a.138.138,0,0,0,.1,0h.865A.155.155,0,0,0,128.5,236.665Z" transform="translate(-16.812 -76.545)"/>
          <path id="Trazado_172458" data-name="Trazado 172458" d="M136.813,237.123a2.293,2.293,0,0,1,.865.121,1.038,1.038,0,0,1,.467.381,6.825,6.825,0,0,1,.424.744l1.729,3.286h-1.245l-1.885-3.779a.2.2,0,0,0-.061-.1.182.182,0,0,0-.1,0h-.865a.138.138,0,0,0-.1,0l-.069.1-1.851,3.77H133l1.678-3.286.311-.588a1.565,1.565,0,0,1,.294-.38,1.02,1.02,0,0,1,.424-.2,3.527,3.527,0,0,1,.675-.061Zm.4-.458,1.729-3.675h1.124l-1.548,3.191c-.121.251-.225.45-.311.614a1.149,1.149,0,0,1-.294.363.96.96,0,0,1-.424.19,2.82,2.82,0,0,1-.666.061h-.458a2.439,2.439,0,0,1-.865-.112.986.986,0,0,1-.476-.381,5.529,5.529,0,0,1-.4-.744L133.13,233h1.219l1.729,3.684.069.1a.138.138,0,0,0,.1,0h.865a.155.155,0,0,0,.1-.112Z" transform="translate(-17.992 -76.545)"/>
          <path id="Trazado_172459" data-name="Trazado 172459" d="M145.509,237.123a2.266,2.266,0,0,1,.865.121,1.037,1.037,0,0,1,.467.38,5.622,5.622,0,0,1,.424.744l1.729,3.286h-1.211l-1.885-3.779a.2.2,0,0,0-.061-.1.182.182,0,0,0-.1,0h-.865a.138.138,0,0,0-.1,0l-.069.1-1.885,3.77h-1.15l1.678-3.286.311-.588a1.565,1.565,0,0,1,.294-.38,1.072,1.072,0,0,1,.424-.2,3.6,3.6,0,0,1,.674-.061Zm.4-.458,1.729-3.675h1.133l-1.557,3.191c-.121.251-.225.45-.311.614a1.15,1.15,0,0,1-.294.363.926.926,0,0,1-.415.19,2.9,2.9,0,0,1-.674.061h-.458a2.439,2.439,0,0,1-.865-.112.986.986,0,0,1-.476-.381,5.528,5.528,0,0,1-.4-.744L141.834,233h1.211l1.729,3.684a.617.617,0,0,0,.061.1.138.138,0,0,0,.1,0h.865a.156.156,0,0,0,.112-.112Z" transform="translate(-19.164 -76.545)"/>
          <path id="Trazado_172460" data-name="Trazado 172460" d="M157.231,237.123a2.293,2.293,0,0,1,.865.121,1.021,1.021,0,0,1,.458.38,6.655,6.655,0,0,1,.432.744l1.729,3.286H159.5l-1.876-3.779a.623.623,0,0,0-.061-.1.182.182,0,0,0-.1,0H156.6a.156.156,0,0,0-.1,0,.623.623,0,0,0-.061.1l-1.9,3.77H153.4l1.669-3.286c.121-.225.225-.424.32-.588a1.384,1.384,0,0,1,.294-.38,1.021,1.021,0,0,1,.424-.2,3.458,3.458,0,0,1,.674-.061Zm.389-.458,1.729-3.675h1.133l-1.557,3.191c-.112.251-.216.45-.3.614a1.28,1.28,0,0,1-.294.363,1.012,1.012,0,0,1-.424.19,2.863,2.863,0,0,1-.666.061h-.467a2.474,2.474,0,0,1-.865-.112,1.029,1.029,0,0,1-.476-.38,6.734,6.734,0,0,1-.4-.744L153.547,233h1.237l1.729,3.684.069.1a.138.138,0,0,0,.1,0h.865a.156.156,0,0,0,.078-.112Z" transform="translate(-20.751 -76.545)"/>
          <path id="Trazado_172461" data-name="Trazado 172461" d="M165.931,237.123a2.293,2.293,0,0,1,.865.121,1.021,1.021,0,0,1,.458.38,5.531,5.531,0,0,1,.432.744l1.729,3.286H168.2l-1.876-3.779a.3.3,0,0,0-.061-.1.182.182,0,0,0-.1,0h-.865a.138.138,0,0,0-.1,0l-.069.1-1.885,3.77H162.1l1.678-3.286c.112-.225.225-.424.311-.588a1.385,1.385,0,0,1,.294-.38,1.021,1.021,0,0,1,.424-.2,3.459,3.459,0,0,1,.674-.061Zm.4-.458,1.729-3.675h1.133l-1.548,3.191c-.121.251-.225.45-.311.614a1.149,1.149,0,0,1-.294.363.959.959,0,0,1-.424.19,2.82,2.82,0,0,1-.666.061h-.476a2.387,2.387,0,0,1-.865-.112,1.055,1.055,0,0,1-.484-.38,6.917,6.917,0,0,1-.389-.744L162.247,233h1.211l1.729,3.684.069.1a.138.138,0,0,0,.1,0h.865a.119.119,0,0,0,.121-.112Z" transform="translate(-21.928 -76.545)"/>
          <path id="Trazado_172462" data-name="Trazado 172462" d="M174.631,237.123a2.266,2.266,0,0,1,.865.121,1.037,1.037,0,0,1,.467.38,5.626,5.626,0,0,1,.424.744l1.729,3.286H176.9l-1.885-3.779a.2.2,0,0,0-.061-.1.182.182,0,0,0-.1,0h-.865a.138.138,0,0,0-.1,0l-.069.1-1.876,3.77H170.8l1.678-3.286.311-.588a1.565,1.565,0,0,1,.294-.38,1.073,1.073,0,0,1,.424-.2,3.6,3.6,0,0,1,.674-.061Zm.4-.458,1.729-3.675h1.133l-1.556,3.191c-.121.251-.225.45-.311.614a1.149,1.149,0,0,1-.294.363.925.925,0,0,1-.415.19,2.9,2.9,0,0,1-.674.061h-.458a2.439,2.439,0,0,1-.865-.112.986.986,0,0,1-.476-.381,5.532,5.532,0,0,1-.4-.744L170.973,233h1.211l1.729,3.684.069.1a.138.138,0,0,0,.1,0h.865a.155.155,0,0,0,.086-.112Z" transform="translate(-23.105 -76.545)"/>
          <path id="Trazado_172463" data-name="Trazado 172463" d="M183.339,237.123a2.241,2.241,0,0,1,.865.121,1,1,0,0,1,.467.38,6.645,6.645,0,0,1,.432.744l1.729,3.286h-1.211l-1.885-3.779a.2.2,0,0,0-.061-.1.138.138,0,0,0-.1,0h-.865a.138.138,0,0,0-.1,0l-.069.1-1.9,3.77H179.5l1.678-3.286c.121-.225.225-.424.32-.588a1.238,1.238,0,0,1,.294-.38,1.029,1.029,0,0,1,.415-.2,3.6,3.6,0,0,1,.675-.061Zm.389-.458,1.729-3.675h1.133l-1.557,3.191c-.121.251-.216.45-.3.614a1.28,1.28,0,0,1-.294.363,1.012,1.012,0,0,1-.424.19,2.863,2.863,0,0,1-.666.061h-.467a2.439,2.439,0,0,1-.865-.112,1.029,1.029,0,0,1-.476-.381,5.528,5.528,0,0,1-.4-.744L179.656,233h1.211l1.729,3.684.069.1a.121.121,0,0,0,.1,0h.865A.156.156,0,0,0,183.729,236.665Z" transform="translate(-24.281 -76.545)"/>
          <path id="Trazado_172464" data-name="Trazado 172464" d="M192.041,237.123a2.293,2.293,0,0,1,.865.121,1.021,1.021,0,0,1,.458.38,5.526,5.526,0,0,1,.432.744l1.729,3.286h-1.219l-1.876-3.779a.3.3,0,0,0-.061-.1.182.182,0,0,0-.1,0H191.4a.121.121,0,0,0-.1,0,.3.3,0,0,0-.069.1l-1.885,3.77H188.21l1.678-3.286c.112-.225.216-.424.311-.588a1.385,1.385,0,0,1,.294-.38,1.02,1.02,0,0,1,.424-.2,3.459,3.459,0,0,1,.674-.061Zm.389-.458,1.729-3.675h1.133l-1.557,3.191c-.112.251-.216.45-.3.614a1.149,1.149,0,0,1-.294.363,1.011,1.011,0,0,1-.424.19,2.863,2.863,0,0,1-.666.061h-.467a2.474,2.474,0,0,1-.865-.112,1.029,1.029,0,0,1-.476-.38,5.629,5.629,0,0,1-.389-.744l-1.5-3.174h1.211l1.729,3.684.069.1a.138.138,0,0,0,.1,0h.865A.147.147,0,0,0,192.43,236.665Z" transform="translate(-25.46 -76.545)"/>
          <path id="Trazado_172465" data-name="Trazado 172465" d="M200.741,237.123a2.293,2.293,0,0,1,.865.121,1.021,1.021,0,0,1,.458.38,5.516,5.516,0,0,1,.432.744l1.729,3.286h-1.219l-1.876-3.779a.3.3,0,0,0-.06-.1.182.182,0,0,0-.1,0H200.1a.139.139,0,0,0-.1,0l-.069.1-1.885,3.77H196.91l1.678-3.286c.112-.225.225-.424.311-.588a1.565,1.565,0,0,1,.294-.38,1.02,1.02,0,0,1,.424-.2,3.458,3.458,0,0,1,.674-.061Zm.4-.458,1.729-3.675H204l-1.548,3.191c-.121.251-.225.45-.311.614a1.15,1.15,0,0,1-.294.363.96.96,0,0,1-.424.19,2.821,2.821,0,0,1-.666.061h-.467a2.387,2.387,0,0,1-.865-.112,1.055,1.055,0,0,1-.484-.38,6.917,6.917,0,0,1-.389-.744l-1.5-3.174h1.211L200,236.682l.069.1a.138.138,0,0,0,.1,0h.865C201.061,236.786,201.1,236.743,201.139,236.665Z" transform="translate(-26.636 -76.545)"/>
          <path id="Trazado_172466" data-name="Trazado 172466" d="M209.406,237.123a2.266,2.266,0,0,1,.865.121.994.994,0,0,1,.467.38,5.628,5.628,0,0,1,.424.744l1.729,3.286H211.68l-1.885-3.779a.2.2,0,0,0-.061-.1.182.182,0,0,0-.1,0h-.865a.139.139,0,0,0-.1,0l-.069.1-1.842,3.77h-1.15l1.678-3.286.311-.588a1.565,1.565,0,0,1,.294-.38,1.073,1.073,0,0,1,.424-.2,3.6,3.6,0,0,1,.674-.061Zm.4-.458,1.729-3.675h1.133l-1.557,3.191c-.121.251-.225.45-.311.614a1.149,1.149,0,0,1-.294.363.926.926,0,0,1-.415.19,2.9,2.9,0,0,1-.674.061h-.458a2.439,2.439,0,0,1-.865-.112.986.986,0,0,1-.476-.381,5.533,5.533,0,0,1-.4-.744L205.766,233h1.211l1.729,3.684a.625.625,0,0,0,.061.1.138.138,0,0,0,.1,0h.865a.156.156,0,0,0,.112-.112Z" transform="translate(-27.814 -76.545)"/>
          <path id="Trazado_172467" data-name="Trazado 172467" d="M221.161,237.123a2.293,2.293,0,0,1,.865.121,1.021,1.021,0,0,1,.458.38,6.651,6.651,0,0,1,.432.744l1.729,3.286h-1.211l-1.876-3.779a.612.612,0,0,0-.061-.1.181.181,0,0,0-.1,0h-.865a.164.164,0,0,0-.1,0,.621.621,0,0,0-.061.1l-1.894,3.77H217.33l1.678-3.286c.112-.225.216-.424.311-.588a1.383,1.383,0,0,1,.294-.38,1.02,1.02,0,0,1,.424-.2,3.459,3.459,0,0,1,.674-.061Zm.389-.458,1.729-3.675h1.133l-1.557,3.191c-.112.251-.216.45-.3.614a1.281,1.281,0,0,1-.294.363,1.012,1.012,0,0,1-.424.19,2.864,2.864,0,0,1-.666.061H220.7a2.473,2.473,0,0,1-.865-.112,1.029,1.029,0,0,1-.476-.38,5.621,5.621,0,0,1-.389-.744l-1.5-3.174h1.211l1.729,3.684.069.1a.138.138,0,0,0,.1,0h.865a.156.156,0,0,0,.1-.112Z" transform="translate(-29.399 -76.545)"/>
          <path id="Trazado_172468" data-name="Trazado 172468" d="M227.82,242.778h-1.15V241.36h1.15Z" transform="translate(-30.663 -77.678)"/>
          <path id="Trazado_172469" data-name="Trazado 172469" d="M24.885,214.062a2,2,0,0,1-.147.415.424.424,0,0,1-.2.19,1.391,1.391,0,0,1-.38,0h-.571L22.55,210.43h.536L24,214.192h.3a.069.069,0,0,0,0-.052l.986-3.692h.51Z" transform="translate(-3.05 -77.555)"/>
          <path id="Trazado_172470" data-name="Trazado 172470" d="M29.694,214.7h-.545l-.285-1.185.078.069H27.074l.086-.069-.311,1.176H26.33l1.012-3.615a1.851,1.851,0,0,1,.147-.389.4.4,0,0,1,.208-.19,1.141,1.141,0,0,1,.389-.052h.553ZM27.835,211l-.588,2.188-.052-.069h1.652l-.052.069-.545-2.266h-.337a.052.052,0,0,0-.043,0A.112.112,0,0,0,27.835,211Z" transform="translate(-3.562 -77.558)"/>
          <path id="Trazado_172471" data-name="Trazado 172471" d="M32.987,214.232v.476H30.86V210.47H31.4v3.865l-.1-.1Z" transform="translate(-4.175 -77.56)"/>
          <path id="Trazado_172472" data-name="Trazado 172472" d="M34.476,214.707H33.94V210.47h.536Z" transform="translate(-4.591 -77.56)"/>
          <path id="Trazado_172473" data-name="Trazado 172473" d="M35.77,214.715v-4.246h1.825a.951.951,0,0,1,.692.19.865.865,0,0,1,.225.649V213.9a.8.8,0,0,1-.233.649,1.038,1.038,0,0,1-.7.2Zm2.093-3.787H36.315v3.338h1.548a.078.078,0,0,0,.086-.086v-3.165a.078.078,0,0,0-.086-.086Z" transform="translate(-4.838 -77.56)"/>
          <path id="Trazado_172474" data-name="Trazado 172474" d="M42.808,214.706h-.545l-.285-1.185.078.069H40.18l.086-.069-.346,1.185h-.51l1.012-3.615a1.469,1.469,0,0,1,.147-.389.4.4,0,0,1,.208-.19,1.107,1.107,0,0,1,.389-.052h.571ZM40.949,211l-.6,2.188-.052-.069h1.652l-.052.069-.536-2.266h-.389Z" transform="translate(-5.331 -77.559)"/>
          <path id="Trazado_172475" data-name="Trazado 172475" d="M27.4,219.464V217.51h.536v4.229H27.4v-2.006l.1.1h-2l.1-.1v2.006H25.06V217.51H25.6v1.954l-.1-.1h2Z" transform="translate(-3.39 -78.513)"/>
          <path id="Trazado_172476" data-name="Trazado 172476" d="M32.4,221.737h-.545l-.259-1.167.078.061h-1.9l.086-.061-.311,1.167H29l1.012-3.606a2.276,2.276,0,0,1,.138-.4.407.407,0,0,1,.216-.182,1.082,1.082,0,0,1,.38-.052h.579Zm-1.859-3.692-.6,2.179-.052-.061h1.652l-.052.061-.536-2.248h-.389Z" transform="translate(-3.923 -78.511)"/>
          <path id="Trazado_172477" data-name="Trazado 172477" d="M33.989,219.369h1.046a1.064,1.064,0,0,1,.692.2.744.744,0,0,1,.233.605v.761a.8.8,0,0,1-.225.631.916.916,0,0,1-.674.2H33.4V221.3h1.92a.078.078,0,0,0,.086-.086v-1.237a.078.078,0,0,0-.086-.086H34.249a.994.994,0,0,1-.674-.19.726.726,0,0,1-.225-.605v-.735a.865.865,0,0,1,.233-.631.934.934,0,0,1,.692-.216h1.574v.476H33.989a.078.078,0,0,0-.086.086v1.211a.078.078,0,0,0,.086.086Z" transform="translate(-4.511 -78.513)"/>
          <path id="Trazado_172478" data-name="Trazado 172478" d="M38.128,221.744h-.545v-3.8l.086.086H36.52v-.476h2.663v.476h-1.15l.1-.086Z" transform="translate(-4.94 -78.518)"/>
          <path id="Trazado_172479" data-name="Trazado 172479" d="M42.808,221.737h-.545l-.285-1.167.078.061H40.18l.086-.061-.346,1.167h-.51l1.012-3.606a1.73,1.73,0,0,1,.147-.4.424.424,0,0,1,.208-.182,1.106,1.106,0,0,1,.389-.052h.571Zm-1.859-3.692-.6,2.179-.052-.06h1.652l-.052.06-.536-2.248h-.389Z" transform="translate(-5.331 -78.511)"/>
          <path id="Trazado_172480" data-name="Trazado 172480" d="M48.289,217.96v-5.508a1.4,1.4,0,0,1,.441-1.167,2.11,2.11,0,0,1,1.34-.346h1.98a2.144,2.144,0,0,1,1.358.346,1.4,1.4,0,0,1,.441,1.167v5.508a1.384,1.384,0,0,1-.441,1.159,2.145,2.145,0,0,1-1.358.355H50.07a2.1,2.1,0,0,1-1.34-.354A1.384,1.384,0,0,1,48.289,217.96Zm4.254-6.053H49.595c-.086,0-.121.043-.121.13v6.33c0,.086,0,.13.121.13h2.949c.086,0,.121-.043.121-.13v-6.33C52.664,211.951,52.63,211.907,52.543,211.907Z" transform="translate(-6.531 -77.623)"/>
          <path id="Trazado_172481" data-name="Trazado 172481" d="M56.3,212.574,58.816,211h1.055v8.353h-1.15v-7.3l.1.043-2.023,1.176Zm5.188,5.949v.865H56.715v-.865Z" transform="translate(-7.616 -77.632)"/>
          <path id="Trazado_172482" data-name="Trazado 172482" d="M67.479,210.44h1.055l-4.419,10.135H63Z" transform="translate(-8.523 -77.556)"/>
          <path id="Trazado_172483" data-name="Trazado 172483" d="M70.709,217.96v-5.508a1.427,1.427,0,0,1,.432-1.167,2.153,2.153,0,0,1,1.349-.346h1.98a2.144,2.144,0,0,1,1.358.346,1.4,1.4,0,0,1,.432,1.167v5.508a1.384,1.384,0,0,1-.432,1.159,2.145,2.145,0,0,1-1.358.354H72.49a2.153,2.153,0,0,1-1.349-.354,1.41,1.41,0,0,1-.432-1.159Zm4.246-6.053h-2.94a.112.112,0,0,0-.13.13v6.33a.112.112,0,0,0,.13.13h2.94a.112.112,0,0,0,.13-.13v-6.33a.112.112,0,0,0-.13-.13Z" transform="translate(-9.564 -77.623)"/>
          <path id="Trazado_172484" data-name="Trazado 172484" d="M79,216.863a1.669,1.669,0,0,1,.121-.7.969.969,0,0,1,.372-.4,4.462,4.462,0,0,1,.649-.329l2.715-1.263a.294.294,0,0,0,.138-.1.2.2,0,0,0,.043-.147v-1.807c0-.112-.061-.164-.182-.164H79.164v-.968l3.2-.052a2.3,2.3,0,0,1,1.046.182,1.219,1.219,0,0,1,.588.553,1.894,1.894,0,0,1,.19.865v1.2a1.15,1.15,0,0,1-.251.8,2.594,2.594,0,0,1-.865.553l-2.681,1.254a.32.32,0,0,0-.2.156.866.866,0,0,0,0,.3v1.591h4v.934H79Z" transform="translate(-10.687 -77.624)"/>
          <path id="Trazado_172485" data-name="Trazado 172485" d="M24.93,176.279l4.557-2.819H31.4v15.3H29.314V175.388l.182.069-3.64,2.17Zm9.426,10.887v1.591H25.708v-1.591Z" transform="translate(-3.372 -68.493)"/>
          <path id="Trazado_172486" data-name="Trazado 172486" d="M40.16,184.138a3.122,3.122,0,0,1,.216-1.288,1.824,1.824,0,0,1,.674-.735,11.1,11.1,0,0,1,1.176-.605l4.946-2.309a.64.64,0,0,0,.251-.173.389.389,0,0,0,.078-.259v-3.329c0-.19-.112-.285-.329-.285H40.5v-1.729l5.8-.1a4.186,4.186,0,0,1,1.9.32,2.291,2.291,0,0,1,1.072,1.029,3.571,3.571,0,0,1,.337,1.617v2.188a2.093,2.093,0,0,1-.458,1.47,4.834,4.834,0,0,1-1.574,1.012l-4.868,2.291a.579.579,0,0,0-.372.285,1.729,1.729,0,0,0-.061.553v2.923h7.307v1.729H40.16Z" transform="translate(-5.433 -68.474)"/>
          <path id="Trazado_172487" data-name="Trazado 172487" d="M64.492,185.772a2.862,2.862,0,0,1-.865,2.283,3.787,3.787,0,0,1-2.637.778l-5.629-.1V187h6.7a.285.285,0,0,0,.329-.32v-4.721c0-.208-.1-.311-.329-.311H56.778v-1.729h5.093q.337,0,.337-.311V175.36q0-.311-.337-.311H55.395v-1.686l5.508-.1a3.822,3.822,0,0,1,2.594.718,2.862,2.862,0,0,1,.865,2.292v2.214a2.248,2.248,0,0,1-.951,2.041,5.015,5.015,0,0,1-2.689.614l.182-.726a4.886,4.886,0,0,1,2.707.6,2.317,2.317,0,0,1,.865,2.084Z" transform="translate(-7.489 -68.465)"/>
          <path id="Trazado_172488" data-name="Trazado 172488" d="M80.6,188.748H78.529V185l.225.164H70.79v-1.375l4.86-8.405c.277-.467.519-.865.726-1.15a1.816,1.816,0,0,1,.865-.631,4.107,4.107,0,0,1,1.427-.2l1.963.052V183.69l-.156-.164h2.594v1.634H80.484l.156-.164Zm-3.035-13.395-4.739,8.336-.147-.164h6.053l-.182.164v-8.552h-.657a.328.328,0,0,0-.216.052.372.372,0,0,0-.112.164Z" transform="translate(-9.576 -68.484)"/>
          <path id="Trazado_172489" data-name="Trazado 172489" d="M97.34,179.43H100.8a4.194,4.194,0,0,1,2.646.726,2.594,2.594,0,0,1,.917,2.214v3.459a2.862,2.862,0,0,1-.865,2.292,3.831,3.831,0,0,1-2.594.726l-5.8-.1v-1.729h6.8c.225,0,.337-.112.337-.32v-5.275q0-.311-.337-.311h-6.65V173.42h8.535v1.729H97.34Z" transform="translate(-12.864 -68.488)"/>
          <path id="Trazado_172490" data-name="Trazado 172490" d="M118.016,188.818H115.2a4.263,4.263,0,0,1-2.594-.657,2.594,2.594,0,0,1-.865-2.188V176.41a2.862,2.862,0,0,1,.917-2.291,3.814,3.814,0,0,1,2.594-.77l5.482.1v1.729h-6.546q-.337,0-.337.311v11.241c0,.208.121.32.363.32h4.782c.225,0,.337-.112.337-.32v-5.379q0-.285-.337-.285h-5.387v-1.729h4.453a4.142,4.142,0,0,1,2.594.666,2.594,2.594,0,0,1,.865,2.205v3.589a2.784,2.784,0,0,1-.865,2.266A3.978,3.978,0,0,1,118.016,188.818Z" transform="translate(-15.114 -68.476)"/>
          <path id="Trazado_172491" data-name="Trazado 172491" d="M130.034,188.808H127.8l5.8-13.421a.277.277,0,0,0,.043-.233c0-.052-.1-.078-.19-.078H126.54v-1.617h7.419a2.015,2.015,0,0,1,1.513.493,1.981,1.981,0,0,1,.467,1.41Z" transform="translate(-17.118 -68.492)"/>
          <path id="Trazado_172492" data-name="Trazado 172492" d="M148.869,188.846h-3.182a3.935,3.935,0,0,1-2.594-.787,2.828,2.828,0,0,1-.865-2.274V183.19a2.3,2.3,0,0,1,.865-2.084,4.869,4.869,0,0,1,2.7-.6l.156.726a4.912,4.912,0,0,1-2.663-.614,2.231,2.231,0,0,1-.96-2.041v-2.214a2.836,2.836,0,0,1,.865-2.274,3.926,3.926,0,0,1,2.594-.735h3.078a3.926,3.926,0,0,1,2.594.735,2.81,2.81,0,0,1,.865,2.274v2.214a2.248,2.248,0,0,1-.951,2.041,5.016,5.016,0,0,1-2.689.614l.173-.726a4.92,4.92,0,0,1,2.707.6,2.326,2.326,0,0,1,.865,2.084v2.594a2.836,2.836,0,0,1-.865,2.274A3.934,3.934,0,0,1,148.869,188.846Zm-4.583-2.127a.294.294,0,0,0,.329.32h5.327a.294.294,0,0,0,.329-.32v-4.747c0-.19-.112-.285-.329-.285h-5.318c-.216,0-.329.1-.329.285Zm.13-7.013c0,.216.1.32.329.32h5.067c.225,0,.337-.1.337-.32v-4.263q0-.311-.337-.311h-5.067c-.225,0-.329.1-.329.311Z" transform="translate(-19.237 -68.478)"/>
          <path id="Trazado_172493" data-name="Trazado 172493" d="M175.031,185.784a2.888,2.888,0,0,1-.865,2.283,3.813,3.813,0,0,1-2.594.778l-5.655-.1v-1.729h6.719c.225,0,.337-.112.337-.32V175.451q0-.311-.337-.311h-4.817c-.216,0-.329.1-.329.311v5.491a.285.285,0,0,0,.329.32h5.43v1.66h-4.462a4.2,4.2,0,0,1-2.594-.666,2.637,2.637,0,0,1-.865-2.205v-3.71a2.784,2.784,0,0,1,.865-2.266,3.969,3.969,0,0,1,2.594-.718h2.828a4.393,4.393,0,0,1,2.594.631,2.594,2.594,0,0,1,.865,2.205Z" transform="translate(-22.363 -68.478)"/>
          <path id="Trazado_172494" data-name="Trazado 172494" d="M183.1,186.125V176.034a2.594,2.594,0,0,1,.778-2.136,3.874,3.874,0,0,1,2.447-.64h3.606a3.917,3.917,0,0,1,2.473.64,2.594,2.594,0,0,1,.787,2.136v10.091a2.594,2.594,0,0,1-.787,2.136,3.917,3.917,0,0,1-2.473.64h-3.589a3.874,3.874,0,0,1-2.447-.64A2.594,2.594,0,0,1,183.1,186.125Zm7.7-11.077H185.45c-.156,0-.233.078-.233.242v11.579a.216.216,0,0,0,.233.242h5.344a.216.216,0,0,0,.234-.242V175.282Q191.053,175.048,190.794,175.048Z" transform="translate(-24.767 -68.464)"/>
          <path id="Trazado_172495" data-name="Trazado 172495" d="M199.93,176.279l4.557-2.819H206.4v15.3h-2.084V175.388l.182.069-3.64,2.17Zm9.426,10.887v1.591h-8.69v-1.591Z" transform="translate(-27.045 -68.493)"/>
          <path id="Trazado_172496" data-name="Trazado 172496" d="M215.16,184.138a3.122,3.122,0,0,1,.216-1.288,1.824,1.824,0,0,1,.674-.735,11.1,11.1,0,0,1,1.176-.605l4.938-2.309a.614.614,0,0,0,.259-.173.389.389,0,0,0,.078-.259v-3.329q0-.285-.337-.285H215.5v-1.729l5.8-.1a4.186,4.186,0,0,1,1.9.32,2.24,2.24,0,0,1,1.064,1.029,3.459,3.459,0,0,1,.346,1.617v2.188a2.092,2.092,0,0,1-.458,1.47,4.833,4.833,0,0,1-1.574,1.012l-4.868,2.291a.579.579,0,0,0-.372.285,1.729,1.729,0,0,0-.061.553v2.923h7.307v1.729H215.16Z" transform="translate(-29.105 -68.474)"/>
          <path id="Trazado_172497" data-name="Trazado 172497" d="M245.112,185.772a2.888,2.888,0,0,1-.865,2.283,3.814,3.814,0,0,1-2.637.778l-5.629-.1V187h6.7a.294.294,0,0,0,.329-.32v-4.721c0-.208-.112-.311-.329-.311h-5.188v-1.729h5.093c.216,0,.329-.1.329-.311V175.36c0-.208-.112-.311-.329-.311H236v-1.686l5.5-.1a3.813,3.813,0,0,1,2.594.718,2.862,2.862,0,0,1,.865,2.292v2.214a2.231,2.231,0,0,1-.96,2.041,4.99,4.99,0,0,1-2.689.614l.182-.726a4.92,4.92,0,0,1,2.715.6,2.335,2.335,0,0,1,.865,2.084Z" transform="translate(-31.922 -68.465)"/>
          <path id="Trazado_172498" data-name="Trazado 172498" d="M261.216,188.749h-2.058V185l.173.164H251.41v-1.375l4.868-8.405a11.5,11.5,0,0,1,.726-1.15,1.73,1.73,0,0,1,.821-.631,4.178,4.178,0,0,1,1.427-.2l1.963.052V183.69l-.147-.164h2.594v1.634h-2.594l.147-.164Zm-3.027-13.395-4.739,8.336-.156-.164h6.053l-.173.164v-8.552h-.64a.346.346,0,0,0-.216.052A.363.363,0,0,0,258.189,175.354Z" transform="translate(-34.009 -68.484)"/>
          <path id="Trazado_172499" data-name="Trazado 172499" d="M272.34,179.43H275.8a4.2,4.2,0,0,1,2.655.726,2.655,2.655,0,0,1,.917,2.214v3.459a2.888,2.888,0,0,1-.865,2.292,3.831,3.831,0,0,1-2.594.726l-5.811-.1v-1.729h6.805a.285.285,0,0,0,.329-.32v-5.275c0-.208-.1-.311-.329-.311h-6.624V173.42h8.535v1.729h-6.442Z" transform="translate(-36.538 -68.488)"/>
          <path id="Trazado_172500" data-name="Trazado 172500" d="M293.015,188.818h-2.828a4.246,4.246,0,0,1-2.594-.657,2.594,2.594,0,0,1-.865-2.188v-9.564a2.862,2.862,0,0,1,.917-2.291,3.779,3.779,0,0,1,2.594-.77l5.474.1v1.729h-6.546c-.216,0-.329.1-.329.311v11.241c0,.208.121.32.355.32h4.791a.285.285,0,0,0,.329-.32v-5.379c0-.19-.1-.285-.329-.285H288.6v-1.729h4.453a4.142,4.142,0,0,1,2.594.666,2.594,2.594,0,0,1,.865,2.205v3.589a2.811,2.811,0,0,1-.865,2.266A3.978,3.978,0,0,1,293.015,188.818Z" transform="translate(-38.785 -68.476)"/>
          <rect id="Rectángulo_37247" data-name="Rectángulo 37247" width="41.541" height="29.98" rx="4.46" transform="translate(29.072 42.214)" fill="#bfbfc1"/>
          <path id="Trazado_172501" data-name="Trazado 172501" d="M44.723,111.134a5.292,5.292,0,0,0,0-10.584v.6a4.7,4.7,0,1,1,0,9.391H33.62v.6h9.737v9.4H33.62v.6h11.1a4.7,4.7,0,0,1,0,9.391v.6a5.292,5.292,0,0,0,0-10.584h-.77v-9.4Z" transform="translate(-4.548 -58.63)" fill="#666"/>
          <path id="Trazado_172502" data-name="Trazado 172502" d="M79.1,111.134v-.6h-11.1a4.7,4.7,0,1,1,0-9.391v-.6a5.292,5.292,0,1,0,0,10.584h.761v9.4h-.761a5.292,5.292,0,1,0,0,10.584v-.6a4.7,4.7,0,1,1,0-9.391H79.1v-.6H69.35v-9.4Z" transform="translate(-8.482 -58.63)" fill="#666"/>
          <path id="Trazado_172503" data-name="Trazado 172503" d="M70.635,131.118H38.043a4.773,4.773,0,0,1-4.773-4.773v-21.03a4.773,4.773,0,0,1,4.773-4.765H70.635a4.773,4.773,0,0,1,4.773,4.765v21.03a4.773,4.773,0,0,1-4.773,4.773ZM38.043,101.147a4.177,4.177,0,0,0-4.142,4.168v21.03a4.177,4.177,0,0,0,4.177,4.177H70.635a4.177,4.177,0,0,0,4.177-4.177v-21.03a4.177,4.177,0,0,0-4.177-4.168Z" transform="translate(-4.501 -58.63)" fill="#666"/>
          <path id="Trazado_172504" data-name="Trazado 172504" d="M104.068,116.41a16.1,16.1,0,0,0-4.834-11.51l-1.124,1.124a14.545,14.545,0,0,1,0,20.753l1.124,1.124A16.127,16.127,0,0,0,104.068,116.41Z" transform="translate(-13.272 -59.219)" fill="#666"/>
          <path id="Trazado_172505" data-name="Trazado 172505" d="M98.461,116.964A11.077,11.077,0,0,0,95.114,109l-1.124,1.124a9.512,9.512,0,0,1,0,13.671l1.124,1.124A11.077,11.077,0,0,0,98.461,116.964Z" transform="translate(-12.715 -59.773)" fill="#666"/>
          <path id="Trazado_172506" data-name="Trazado 172506" d="M92.8,117.534a6.053,6.053,0,0,0-1.859-4.324l-1.124,1.124a4.419,4.419,0,0,1,0,6.46l1.133,1.124A6.053,6.053,0,0,0,92.8,117.534Z" transform="translate(-12.15 -60.343)" fill="#666"/>
          <rect id="Rectángulo_37248" data-name="Rectángulo 37248" width="54.478" height="29.401" rx="5.37" transform="translate(220.505 142.998)" fill="#bfbfc1"/>
          <path id="Elipse_4696" data-name="Elipse 4696" d="M10.451-.75a11.2,11.2,0,0,1,7.92,19.121A11.2,11.2,0,0,1,2.531,2.531,11.127,11.127,0,0,1,10.451-.75Zm0,21.013A9.812,9.812,0,1,0,.639,10.451,9.823,9.823,0,0,0,10.451,20.263Z" transform="translate(230.073 147.247)" fill="#666"/>
          <path id="Elipse_4697" data-name="Elipse 4697" d="M10.451-.75a11.2,11.2,0,0,1,7.92,19.121A11.2,11.2,0,0,1,2.531,2.531,11.127,11.127,0,0,1,10.451-.75Zm0,21.013A9.812,9.812,0,1,0,.639,10.451,9.823,9.823,0,0,0,10.451,20.263Z" transform="translate(244.514 147.247)" fill="#666"/>
        </g>
        <g id="Grupo_1099131" data-name="Grupo 1099131" transform="translate(12.861 79.188)">
          <circle id="Elipse_4693-6" data-name="Elipse 4693" cx="13.538" cy="13.538" r="13.538" transform="translate(0)" fill="#ffdc39" opacity="0.4"/>
          <circle id="Elipse_4692-6" data-name="Elipse 4692" cx="10.153" cy="10.153" r="10.153" transform="translate(3.384 3.384)" fill="#ffdc39"/>
          <text id="_2-2" data-name="2" transform="translate(11.153 11.092)" fill="#12263f" font-size="5" font-family="Roboto-Black, Roboto" font-weight="800"><tspan x="-1.448" y="0">2</tspan></text>
        </g>
        <g id="Grupo_1099132" data-name="Grupo 1099132" transform="translate(96.118 79.188)">
          <circle id="Elipse_4693-7" data-name="Elipse 4693" cx="13.538" cy="13.538" r="13.538" transform="translate(0)" fill="#ffdc39" opacity="0.4"/>
          <circle id="Elipse_4692-7" data-name="Elipse 4692" cx="10.153" cy="10.153" r="10.153" transform="translate(3.384 3.384)" fill="#ffdc39"/>
          <text id="_3-2" data-name="3" transform="translate(11.153 11.092)" fill="#12263f" font-size="5" font-family="Roboto-Black, Roboto" font-weight="800"><tspan x="-1.448" y="0">3</tspan></text>
        </g>
        <g id="Grupo_1099133" data-name="Grupo 1099133" transform="translate(0 159.738)">
          <circle id="Elipse_4693-8" data-name="Elipse 4693" cx="13.538" cy="13.538" r="13.538" transform="translate(0)" fill="#ffdc39" opacity="0.4"/>
          <circle id="Elipse_4692-8" data-name="Elipse 4692" cx="10.153" cy="10.153" r="10.153" transform="translate(3.384 3.384)" fill="#ffdc39"/>
          <text id="_4-2" data-name="4" transform="translate(11.153 11.092)" fill="#12263f" font-size="5" font-family="Roboto-Black, Roboto" font-weight="800"><tspan x="-1.448" y="0">4</tspan></text>
        </g>
        <g id="Grupo_1099136" data-name="Grupo 1099136" transform="translate(8.799 183.429)">
          <circle id="Elipse_4693-9" data-name="Elipse 4693" cx="13.538" cy="13.538" r="13.538" transform="translate(0)" fill="#ffdc39" opacity="0.4"/>
          <circle id="Elipse_4692-9" data-name="Elipse 4692" cx="10.153" cy="10.153" r="10.153" transform="translate(3.384 3.384)" fill="#ffdc39"/>
          <text id="_5-2" data-name="5" transform="translate(11.153 11.092)" fill="#12263f" font-size="5" font-family="Roboto-Black, Roboto" font-weight="800"><tspan x="-1.448" y="0">5</tspan></text>
        </g>
        <g id="Grupo_1099146" data-name="Grupo 1099146" transform="translate(44.206 42.391)">
          <circle id="Elipse_4693-10" data-name="Elipse 4693" cx="13.818" cy="13.818" r="13.818" transform="translate(0)" fill="#ffdc39" opacity="0.4"/>
          <circle id="Elipse_4692-10" data-name="Elipse 4692" cx="10.364" cy="10.364" r="10.364" transform="translate(3.455 3.454)" fill="#ffdc39"/>
          <text id="_1-2" data-name="1" transform="translate(11.364 11.218)" fill="#12263f" font-size="5" font-family="Roboto-Black, Roboto" font-weight="800"><tspan x="-1.448" y="0">1</tspan></text>
        </g>
        <g id="Grupo_1099122" data-name="Grupo 1099122" transform="translate(120.486 0)">
          <path id="Trazado_172510" data-name="Trazado 172510" d="M131.3,8.61h-3.5l-.609,1.977H124.48L128.338,0h2.4l3.912,10.587h-2.708Zm-2.89-1.97h2.274l-1.11-3.675Z" transform="translate(-124.48 0)" fill="#12263f"/>
          <path id="Trazado_172511" data-name="Trazado 172511" d="M142.195,3.926l.081.921a2.708,2.708,0,0,1,2.247-1.069,2.234,2.234,0,0,1,1.834.738,3.472,3.472,0,0,1,.629,2.207v5.07H144.53V6.836a1.353,1.353,0,0,0-.244-.88,1.09,1.09,0,0,0-.873-.278,1.171,1.171,0,0,0-1.063.562V11.8H139.9V3.926Z" transform="translate(-129.462 -1.218)" fill="#12263f"/>
          <path id="Trazado_172512" data-name="Trazado 172512" d="M155.184,8.962,156.43,4h2.586l-2.565,7.865h-2.5L151.38,4h2.586Z" transform="translate(-133.172 -1.292)" fill="#12263f"/>
          <path id="Trazado_172513" data-name="Trazado 172513" d="M167.286,11.961a4.061,4.061,0,0,1-2.931-1.083,3.73,3.73,0,0,1-1.117-2.809v-.2a4.84,4.84,0,0,1,.447-2.132,3.256,3.256,0,0,1,1.306-1.428,3.9,3.9,0,0,1,2.031-.508,3.384,3.384,0,0,1,2.62,1.029A4.061,4.061,0,0,1,170.6,7.7v.975H165.73a1.747,1.747,0,0,0,.575,1.036,1.685,1.685,0,0,0,1.151.379,2.2,2.2,0,0,0,1.814-.812l1.124,1.354a3.094,3.094,0,0,1-1.3,1.009A4.393,4.393,0,0,1,167.286,11.961Zm-.278-6.268q-1.076,0-1.279,1.421h2.477v-.19a1.225,1.225,0,0,0-.3-.914,1.191,1.191,0,0,0-.893-.318Z" transform="translate(-137.003 -1.225)" fill="#12263f"/>
          <path id="Trazado_172514" data-name="Trazado 172514" d="M180.345,6.156l-.812-.054a1.455,1.455,0,0,0-1.482.724v4.982H175.6V3.929h2.3l.081,1.009A1.882,1.882,0,0,1,179.7,3.78a2.538,2.538,0,0,1,.677.088Z" transform="translate(-140.997 -1.221)" fill="#12263f"/>
          <path id="Trazado_172515" data-name="Trazado 172515" d="M187.825,9.617a.569.569,0,0,0-.332-.508,5.091,5.091,0,0,0-1.239-.393,5.55,5.55,0,0,1-1.516-.535,2.566,2.566,0,0,1-.907-.8A1.915,1.915,0,0,1,183.52,6.3a2.173,2.173,0,0,1,.921-1.787,3.682,3.682,0,0,1,2.342-.677,4.061,4.061,0,0,1,2.5.677,2.213,2.213,0,0,1,.948,1.855h-2.457c0-.63-.332-.941-1-.941a1,1,0,0,0-.677.21.677.677,0,0,0-.264.535.609.609,0,0,0,.325.535,3.04,3.04,0,0,0,1.022.332,10.152,10.152,0,0,1,1.232.311,2.25,2.25,0,0,1,1.773,2.193,2.065,2.065,0,0,1-.954,1.753,4.779,4.779,0,0,1-4.285.311,3.012,3.012,0,0,1-1.232-.988,2.247,2.247,0,0,1-.447-1.32h2.295a.948.948,0,0,0,.359.8,1.5,1.5,0,0,0,.894.25,1.191,1.191,0,0,0,.758-.2A.677.677,0,0,0,187.825,9.617Z" transform="translate(-143.476 -1.237)" fill="#12263f"/>
          <path id="Trazado_172516" data-name="Trazado 172516" d="M194.72,7.8a4.665,4.665,0,0,1,.46-2.1,3.317,3.317,0,0,1,1.313-1.415,4.061,4.061,0,0,1,2.031-.494,3.608,3.608,0,0,1,2.782,1.1,4.177,4.177,0,0,1,1.022,2.978v.122a4.061,4.061,0,0,1-1.022,2.917,4.061,4.061,0,0,1-5.463.074,3.926,3.926,0,0,1-1.1-2.708Zm2.45.156a2.9,2.9,0,0,0,.345,1.6,1.137,1.137,0,0,0,1.009.508q1.306,0,1.354-2.031V7.8c0-1.408-.454-2.112-1.354-2.112s-1.259.6-1.354,1.821Z" transform="translate(-147.175 -1.226)" fill="#12263f"/>
        </g>
        <g id="Grupo_1099123" data-name="Grupo 1099123" transform="translate(113.04 16.428)">
          <rect id="Rectángulo_37258" data-name="Rectángulo 37258" width="69.719" height="1.449" transform="translate(0 0)" fill="#ffdc39"/>
          <path id="Trazado_172517" data-name="Trazado 172517" d="M158.75,24.27l4.569,4.562,4.569-4.562Z" transform="translate(-128.459 -24.27)" fill="#ffdc39"/>
        </g>
        <g id="Grupo_1099134" data-name="Grupo 1099134" transform="translate(261.278 133.339)">
          <circle id="Elipse_4693-11" data-name="Elipse 4693" cx="13.538" cy="13.538" r="13.538" transform="translate(0 0)" fill="#ffdc39" opacity="0.4"/>
          <circle id="Elipse_4692-11" data-name="Elipse 4692" cx="10.153" cy="10.153" r="10.153" transform="translate(3.384 3.384)" fill="#ffdc39"/>
          <text id="_6" data-name="6" transform="translate(11.153 11.092)" fill="#12263f" font-size="5" font-family="Roboto-Black, Roboto" font-weight="800"><tspan x="-1.448" y="0">6</tspan></text>
        </g>
        <g id="Grupo_1099135" data-name="Grupo 1099135" transform="translate(270.755 179.368)">
          <circle id="Elipse_4693-12" data-name="Elipse 4693" cx="13.538" cy="13.538" r="13.538" transform="translate(0)" fill="#ffdc39" opacity="0.4"/>
          <circle id="Elipse_4692-12" data-name="Elipse 4692" cx="10.153" cy="10.153" r="10.153" transform="translate(3.384 3.384)" fill="#ffdc39"/>
          <text id="_7" data-name="7" transform="translate(11.153 11.092)" fill="#12263f" font-size="5" font-family="Roboto-Black, Roboto" font-weight="800"><tspan x="-1.448" y="0">7</tspan></text>
        </g>
      </g>
    </g>
  </g>
</svg>
